<svg xmlns="http://www.w3.org/2000/svg" xmlns:xlink="http://www.w3.org/1999/xlink" viewBox="0 0 1165.7783 708.2592"><defs><clipPath id="clip-path" transform="translate(-24.7666 -69.854)"><ellipse cx="591.3104" cy="246.4661" rx="149.7111" ry="146.4637" fill="none"/></clipPath><clipPath id="clip-path-2" transform="translate(-24.7666 -69.854)"><path d="M521.7139,351.78c4.498,3.8,3.4765,9.8042,7.1562,13.939.2739,3.2012,3,5.4033,4.9112,7.9365,6.27,3.9351,14.519,3.4693,21.8144,1.9346,10.6333-4.6026,23.7251-5.5366,35.5859-2.8682,6.9532-.8672,12.3379,3.334,19.43,2.8682,4.2959.8,9.2032.8,12,4.8022.8155,2.2671.2032,4.5342,0,6.9361-2.1816,1.0669-5.1816-3.7354-6.6113.2661-.3418,1.0669.7471,2.8681-1.0254,3.1362-5.3164.1333-8.7256-4.7358-13.9746-4.1362-2.0459,1.5346-4.2275,3.6684-6.8857,3.1357-.6831-.5342-2.0464-1.2685-1.9112-2.4018,1.6372-1.1353,5.8653.5341,5.3877-2.4019-6.1347-1.2-12.4087.1328-18.4087.7339-.4057.6011-1.2954,1-1.0215,1.9341.4771,1.0019,2.5909.8008,1.7725,2.1357a1.718,1.718,0,0,1-1.4985,1.4663c-5.1133.7344-12.544-2.8676-16.2271,2.1343a3.8239,3.8239,0,0,1-3.8862-2.1343c.8862-.9336,3.8862.0669,3.6831-2.2-1.7046-1.2021-3.6152-.8007-5.3872-.2016a107.0793,107.0793,0,0,0-12.0674,6.0024c-3.2031.2681-5.5874-1.4663-8.3169-2.1987-3.6118.5991-8.3164-1.335-10.8393,1.7329-5.4522,3.0674-5.3169-5.936-10.295-4.1348-2.1816.2661-4.2954,1.6-6.6123.7325-.68-.7325-1.5659-2-.4765-2.8667a16.11,16.11,0,0,0,2.6582-2.1353c-.2032-4.002-5.7261-1.6665-6.8184-5.0689-2.11-1.4-5.249-.2661-7.6333-.9335-5.4556.6674-4.9785-8.0035-11.0459-5.8013-2.5908,2.334-7.7012,1.7329-10.5659.4663-3.3413-.333-6.1348-1.9341-9.0669-3.334-2.1816.2661-5.0464-.8008-5.8647,1.9321,0,2.3355,3.0708,3.6026,4.16,5.5367-2.3882,1.4677-4.4985-.6675-6.6123-1.2-3.7505-1.2666-4.84,4.5341-7.9106,2.6015a17.1026,17.1026,0,0,0-9.815-1.9341c-1.0923.7325,0,1.8008,0,2.6665l1.7725.9341c-2.8648,1.8672-7.7046.2012-10.5659,2.4019-1.9786.5342-3.6153,3.1343-5.9322,1.4663-.2739-.4658-1.16-.7339-.9536-1.4663,1.292-1.4019,4.4981-.8008,4.1568-3.6021a6.9639,6.9639,0,0,0-4.6373-.4663c-.5444.5327-1.7719.666-1.7041,1.6665.4126,2.7349-3.68,1.4678-3.2031,4.336a10.1907,10.1907,0,0,1-6.6118.7339c-.2065-.7339-.6831-1.335-.5478-2.1338,1.2983-.4014,2.729,1.0654,4.2275.1982,1.2275-1.3335,2.5908-2.8682,1.7046-4.8008a4,4,0,0,0-4.9077-1.9341c-3.4766.7325-.3413,5.2017-3.6831,5.5347-1.772-.333-3.68.4678-3.9536,2.2007-1.16,3.7349-5.7256,2.5347-8.587,3.8032-1.5693-.0683-2.6616,2.1338-4.434,1.0005a8.089,8.089,0,0,0-4.6368-5.8042c-3.5444.6006-7.7719-.3994-10.2915,2.668.9536,1.6015,3.4058.8008,4.9073,1.6679.9536-.0664,1.7719-.7338,2.9321-.4677.8188,1.2016-.3413,2.8681-.957,4.07-1.566,1.6665-3.4766,3.4009-5.9288,3.334a5.2548,5.2548,0,0,1-3.8862-.9336c-2.9321-.5327-8.1811,1.5347-9.3413-2.4.1387-1.4014-1.1567-2.8013,0-4.07,1.0249-.7989,3.6157.6675,4.16-1.2-2.1817-1.1333-5.3169.268-7.3628-1.2-.68-.2661-1.0249.333-1.4986.7344-1.0923,3.2675-1.2983,7.4023-4.9106,9.3364-2.1812.1347-3.4766,2.5351-5.3843,3.3354-5.729-1.4677-11.1133,3.0679-16.43-.2-1.2954-.8672-2.0459,1.0655-3.206,1.2-1.9077-.3345-4.772.8008-5.6582-1,.6831-3.5351.5444-7.9365,4.4336-9.604a10.1213,10.1213,0,0,1,5.6552-.4663,1.17,1.17,0,0,0,.48-1.2016c-3.4765-3.1343-7.16.6005-10.2949,1.934-1.7725,1.4683-3.4092,3.2027-5.6582,3.6021-6.2739-2.8013-10.6367,3.8686-17.3843,1.2-1.3628-.2661-2.249-1.4663-3.6831-1.4663-1.2949,2.4-2.1138,4.8672-3.9536,7.0024-1.498-2.4018-3.3413-5.3349-2.1811-8.67,3.1352-4.2016,7.6367-6.7363,12-9.6045,18.2026-9.7378,38.9956-13.5381,55.2192-28.0776a12.4338,12.4338,0,0,1,13.9785-.7339c3.815,2,4.43,6.0688,5.3843,9.6025l1.9751.7339c18.5474-.3994,34.2266-10.3364,53.2476-11.0708,10.1562-.1333,20.9956-1.4663,30.6752-1.4013,1.6373-.6661,3.274-.3995,5.4556-.4664,11.0425.3331,21.7466-1.4663,32.5864-2.2C508.4863,348.1118,516.8706,346.9116,521.7139,351.78Z" fill="none"/></clipPath><clipPath id="clip-path-3" transform="translate(-24.7666 -69.854)"><path d="M475.0273,382.2988c.4126-1.3477,1.2447.541,1.38-.9434,1.6573.271,2.8985-.541,4.2783,0v-.4043c.8287.27.69,3.105,2.3438,1.6192l.9673-.9439c.4126.9439,1.1025-.271,1.2412-.271,2.76.5405,6.6255,0,9.3857,1.6192,1.6538-1.4844,2.8951,1.7553,4.5523.271l4.001,1.6191c-5.9322,1.08-11.3135-3.7788-16.833-1.6191,0,1.08-.2774,2.43.9638,2.9687,4.14-.1348,10.7656.4063,14.4893,3.9155-1.5186.6758-2.8985-.81-4.2783.27-1.1026-.9449-2.2051-.4043-3.3111-1.6206-4.6914-.9434-7.59-.5391-10.9009-4.1836-1.5185.27-2.4824.8105-4.6909.6757-.5512-1.0815-1.2412-2.7006-2.8984-2.0253-1.9312,2.0253-3.8623-2.0249-6.6221-.9468-.5547,2.1616-4.417,2.1616-2.6211,4.5913,1.6538.81,3.1724-1.4844,4.2783-2.2949a27.8892,27.8892,0,0,1,5.9322,3.914c1.6572-1.6191,3.5849,0,4.9648-.6738,3.5884.4043,5.3843,3.9155,9.937,2.8335.69,1.082,2.3472.541,2.6211,2.0254-3.311-.4043-6.6225.9453-9.521-2.2949-3.0371-1.2149-6.2094.9453-9.6592.6757l-.69.9454c.5547,1.4843,2.2085,1.7539,3.7271,1.6191.8251,1.08,3.45.6738,4.5522.9434a49.5464,49.5464,0,0,1,7.59,2.5659c2.8985.9453,7.7281.81,11.0391,2.7007,1.38-2.0249,3.0371-1.35,4.9683-1.08l1.9311,3.2383c2.895-2.8335,6.4834-.6739,9.6592.4062v.9453c-.2773-.1367-.4126-.4062-.69-.2695-.4161.1328-.4161.5391-.4161.9434.8287.541,2.0733.271,3.0372.271l1.9311-1.6207c.69,3.24,3.311-.539,4.9683.6758l.69-.6758.69.6758c.9639-1.7558,3.7237.4043,5.2422,0,3.1758,2.293,6.21-1.7558,9.6592-.2695.69-.8106,2.6211,0,3.3111.5391,1.1059.1347,2.621-.9454,4.0043-1.6211.274.8105.5513,2.0254,1.6539,2.2964,2.07-.81,4.0009.54,5.6582-1.2144-.1387-.6758.1352-1.4863-.4161-2.0269h-.2739c6.6221,0,12.9707-5.1289,19.4541-3.2382,4.6944,2.2944,10.3491-3.2417,13.9375.9448-4.4136.6758-9.1079,0-13.2475,1.6191l-3.585-.2695v.2695c-1.2446.4048-3.8657-2.2944-4.0044.6743-.2739,2.4312,1.6572,1.3511,3.0371,2.0269,3.7271.2695,6.8994-.6758,10.4878,0,1.5186-1.3516,4.14.1328,5.3809-1.6211.4126.81.4126,1.8906,1.2412,2.5645,1.5185-.27,3.8623-.9434,4.4136-.6739V403.09c3.5878-.2715,8.5566.5391,12.1445-.6758v-.6758c.69.9453,2.209.8106,2.76.9453,2.76,0,7.59-1.4843,10.4883,0,.4121-1.2148,2.3438.1348,3.0332-.2695.1387-1.7539,1.1065.5391,1.6543-.6758l.6895.6758.69-.6758c.1416.1348.2774.4063.5547.27l.69-.5391.6895.5391.6894-.5391c.1358.1348.2744.4043.6905.2695l.5517-.6753c1.24.9449.9629,2.97,3.0332,2.566l1.38-2.16c2.4854.9453,5.3838-.6753,7.59.2695,1.2451,0,3.1757-1.7539,3.5888,0l.6895-.9448c1.2412,1.08,3.7265-.8091,4.9687.2695.4121.5406,3.0371-.9438,4,0l.6905-.9438.5517.6743c.416-.1333.416-.6743.416-.9438l.6856.9438.9677-.9438v.2695c7.3116-3.3745,12.5577,1.35,19.87-2.2944,1.9306,1.0781,3.5879-.6758,5.9355.4043.4121-.27.2734-.6739.2734-1.08.5508-.1348.6895.4062,1.1055.6758,1.6543-.6758,5.5195-1.2149,7.1738-1.8907v.27c2.3438.81,4.5557-1.2144,6.6221-.9449-3.5889.9449-5.1035,4.1866-5.9326,6.7491-.5508-.5391-1.6533,1.2148-2.3438-.27-.416.9453-.6894,2.566.4131,3.24a13.2021,13.2021,0,0,0,6.8994.271c.8252-.5406.9639-1.2163,2.3477-.9453l1.376,3.2382c3.8662,0,3.5888-2.6987,5.9355-4.4526,6.4834,2.9683,13.5225-.2715,19.1807-.4063,4.9678-.539,9.9326,0,14.9-1.6206l.69.6753c1.38-.539,3.3115-.1347,4.5518-.9448,2.3476.81,4.6914-.2695,7.039-.4048,3.1719.1353,6.76-1.3491,9.9356-1.2143,6.0713-1.4864,12.0039-.9453,17.5234-2.9707,3.7236-.8086,6.4834.4062,10.6231-1.2144,4.83.4058,8.5566-1.0786,12.832,0,4.1387.9448,7.3144-4.32,11.5937-2.0239,2.8946-.271,5.9317-1.89,8.002-2.2964,4.416-.9448,11.4512.6758,14.623-2.8335l.5547.6738a1.16,1.16,0,0,1,1.1035-.4043l-1.1035,1.6192-.5547-.6743c-2.6171.27-5.1035,2.5644-8.2753,2.7011a1.9883,1.9883,0,0,0-2.3477.9434c-.5508,1.4858,1.1064,1.6191,1.9316,1.8887,5.1075-2.0235,12.8321,0,18.2159-1.8887,2.3437-.1348,5.3808.6758,7.5888,1.2163,1.2422,0,.5518-1.6206.6905-1.89,1.5156-.6758,4.5527,3.5092,7.59,2.9687l1.1025.9448c-.4121.1348-.4121.6758-.4121.9453,2.4825,3.105,7.5889-1.4843,10.6231,2.295-.6905.4043,0,1.6191-.9649,1.8886-3.1757.6753-3.7265-3.6445-7.0371-2.8339-2.8984.5405-5.1074.1347-8.28.271-3.0371,1.7539-7.038,1.6191-9.9326,3.914l-1.2451-.4062c-.1387.8105-.1387,3.1054,1.6572,2.7011,3.585-.4047,7.7247-1.8906,9.9336-1.08v-.9454c.6934,1.35,3.5879-.6757,5.2461,0,3.7227-.4043,6.8985.5391,10.6231,1.6207-.8291,1.2148-2.07,3.1035-3.5889,2.9687l-1.1025,1.2148c-2.209-.9453,1.6572-1.89-.5508-2.8354-2.3477,0-5.9356-.8086-7.3164,2.2964l-.6895,1.89c-3.0342-.6753-6.0713-2.7007-8.97-1.89a1.0175,1.0175,0,0,1-.2744,1.6206c-4.5518-3.917-8.5527,1.3481-13.66-.4058,0,.8086-1.24.9453-.9668,2.0249,2.4864,2.0254,5.9356,1.6192,8.2793,1.2134-4.2754,2.1616-11.7285,1.4858-16.1425.4058h-3.0372c-.1386.2695.1387.4062.2774.54-.9668,1.0816-4.5557-.9453-3.5879,2.0264-1.2422,2.9687-5.1074,1.8887-7.59,1.8887-2.4825-2.8335-4.417,1.35-6.6221.6757a1.3141,1.3141,0,0,1-.9678,1.6192c-1.24-.6738-2.6211,1.08-3.7266.6758l-4.5527.27-.6894-.6758c-.5508,1.8911-2.2051-.2695-3.3106,1.0816-2.209.1333-5.1035-1.89-7.3125-.6753-1.5185.6753-2.3476-1.2149-3.5879-.4063l-.414-.2695c2.206-1.89,6.7617,0,7.59-2.9688-2.76-3.2412-4.6934.8091-7.8672.4043-1.24.4048-1.24,2.2949-.6894,3.24-4.001-.54-8.002,2.4292-11.59,0l-1.3808,1.89c-2.208-1.89-5.6582-.6748-7.8633.4043-.416,1.2148-.5547,3.1035-2.3467,3.24,0-.4062.1387-.81-.2773-1.08a8.0266,8.0266,0,0,1-5.6553.6738c-3.4492,1.2148-6.3477,4.7256-10.3487,2.0263v-.6757c1.1026,1.0791,1.6534-1.2139,2.76,0,.69-1.62,3.3115-2.5655,2.2051-4.8594-.4131-1.35-1.792-1.7544-2.8955-2.0259-2.3467-.4043-3.5879,2.2964-5.3838,2.7007a8.9731,8.9731,0,0,0-1.2412-5.939c-1.793-.271-3.7236-.81-4.9688,0-1.3789-2.4311,4.0049-.6753,3.3145-3.5112a5.5079,5.5079,0,0,0-5.3809.9453c.2744.9453-.416,2.43,1.1035,2.5659-.416.9453-1.6543,1.0786-2.76,1.0786-.5518-.809-.6905-1.6191-1.6582-2.2934l-5.2422.2695c-.2734-.81.69-1.08.2773-1.89-1.6562-1.7539-3.3105.4043-4.9677.6758-.4131,2.8335-4.14.9448-5.52,2.8335-2.622.1352-4.9687-.27-7.7285.6757.69.1348.8291-1.7553,1.6572-.6757.6895-.4043.2735-1.2144.4161-1.8887a6.6112,6.6112,0,0,0-7.3155-.9448c-1.2412.2695-2.76-1.0816-3.5888.9448a2.0282,2.0282,0,0,0,.9677,1.8887c.8252,0,2.6211-1.2144,4.001-.27-.1387.27.1387.4048.2734.6743.4161-.2695.2774-.6743.2774-1.0786.5517,1.4844,1.3808-.271,2.07.6739-3.0371,1.2168-8.5527.2714-12.0029,2.2949l-.5518-.9453c-3.1758.9453-6.0742-.5391-9.3848,0l-.2734-.4043c4.2744-4.9937,9.2422,3.3755,12.9668-2.16-2.7568-.6743-5.5166,0-8.2764-1.35-4.417,1.2148-9.1084,1.4844-13.66,2.2944-.5547.27-.2774,1.08-.2774,1.6192,2.4825.4062,5.2422-.8086,8.2793-.4043-1.1025.81-3.8623,1.4858-4.69.6758-1.5195.81-2.76,1.8886-4.9687.9433v-.2695c-5.3809.9453-8.002,1.4844-13.9336-.9453,1.6533-.9449.6855-2.564.4121-3.9136-2.625,0-1.793-3.9155-3.7266-3.24-1.6582-.1348-2.6211-1.7554-4.9648-1.6192-1.3809-.2695-2.3477.6743-3.5918.9439l-.2744-.27c1.7959-3.9155,4.14.6753,6.6259-2.5644.4121-1.3511-1.1064-1.8906-2.07-1.6206-3.5879-1.2149-7.7285.5405-10.2138.9448,0,1.3516.2773,3.1055,1.9345,3.24-1.2441-.1347-4.2793-.1347-4.9687-.9438-.416.1333-.2774.5395-.2774.9438-1.38-1.2148-4.14,1.08-5.3808-.6743-3.0371,1.8892-6.3448.4048-9.9366,1.35-.5478-1.2163-.9638-.1347-1.6533,0-3.0342.6743-6.0713-1.89-6.9,2.1587l.6905.6753c-4.6905.8106-10.0713-.2695-14.628.9453-8.14,1.6206-12.831-4.5893-21.5229.4058-.9673-1.6206-.4126-4.7256-2.8985-4.86-.416,1.2149-1.7924.1348-2.3437.9449-.5547-.5406-.2773-1.3492-.416-1.8887,1.2412-.271,3.727.1333,4.9682-1.3511.1387-.6758,1.2413-1.35.4126-1.89-3.45-1.2149-7.0346,1.3511-9.9331.5405v.6738l-.69-.6738a5.94,5.94,0,0,1-1.38,2.97l-1.9316-.9448.2744-.4063c-.4131-.539-1.2417-.1347-1.9317-.2695-2.3471,1.8906-4.6909,1.3511-8.5566,1.8906-4.9648.5391-7.5894,3.3745-12.2769,1.3492-4.0043,1.6191-9.1079,3.375-12.2836,1.6191-.69,0-1.6539.8105-2.3438-.2695-4.14,2.16-8.5532-4.05-13.2476-1.08-3.727-2.43-8.9692.9448-11.59-4.8594-2.76-.81-6.0708,1.6191-8.5532-.5405-2.8989-.27-4.9688-2.0239-7.3159-3.9141-.5513-.81-1.1026,1.08-1.6538-.4062-.9673,1.2148-2.07,1.4863-3.3145.4062-1.9311-2.8354-5.5195.6758-8.0019-2.2949-1.6573,1.08-1.7925-2.16-3.585-1.89-2.3472.4043-4.417,5.2651-7.3154,1.6206-1.9312-.4043-2.4825,1.35-4.2783,1.8886l-.274-.2695c.5513-3.24,7.4507-.5391,3.5884-4.32-3.727-1.35-6.7642,2.16-8.5566,4.8589a1.1122,1.1122,0,0,1-.4126,1.082l-.2774-1.3516c-3.311-.8086-5.5195,1.7559-8.9692-.2695-2.3472.9453-4.5523,3.6445-7.312,2.16-1.1026-1.2149-2.76-2.8355-4.9683-2.16-2.07.9453-4.83.2695-6.8994,1.8906l-.69-.6758-.69.9454c-6.6225-.1348-13.6606,3.5092-19.87,2.6992-6.0708,2.97-11.4517,2.97-17.8,4.4546-.2739-.1348-.4126-.4043-.69-.27l-.69.6753-.69-.6753c-3.7237,4.05-8.8306-.6743-12.5577,4.4546-3.1723.8106-9.2431-1.4844-12.5541.6753-3.3111.8091-7.0381-.4057-9.9366,2.2949a43.3249,43.3249,0,0,0-10.35,1.8887c-4.6909.6758-10.7617.1367-15.4526,1.6216-5.7935.9443-10.9-2.0259-15.3174,1.3486-.9639.27-2.3438-1.0791-2.6211.6758-5.5195-.81-9.1079,3.1035-14.2114.2695a69.0168,69.0168,0,0,0-10.3491.6739c-.4126-.4043-.4126-.9434-.9639-1.3487,4.001-2.9692,9.9331-.81,14.624-1.89.2774.27.4126.81.9673.6748,1.7925-.54,5.2422-1.62,8.002-.9443v-.4058h3.311v.4058a9.6693,9.6693,0,0,0,5.2456-1.0816l.2739,1.3511c1.7959-.6753,4.83-1.7554,7.0381-1.3511l.69-.9433c.5513,1.2148,1.5186.4042,2.2085.4042v-.4042c2.0664-1.35,4.001,1.4843,5.6548,0,1.38-.2715,3.1758.81,4.0044-.9454,4.8262-1.6206,11.7261-1.89,15.8657-2.5644,3.45-.54,7.5894-2.7007,11.5938-3.2412,2.3437-.9439,2.6177,1.2148,4.9648.2695,1.7925-1.6191,7.0381-1.4844,7.5894-4.4531-.9673-1.2149-3.311-.6758-4.5523-1.6206,3.45-1.35,8.5567-1.0786,12.8316-2.9688,3.311-3.375,8.6919-3.6445,12.6963-5.13v.271c3.0337-1.0816,8.5532-1.4859,12.5542-3.2413,5.3808,1.08,11.4521-3.375,16.8364-1.3481,3.7236,1.7539,2.895-4.9956,5.3809-2.16,1.2412-.4062,2.8984.8086,3.5883-1.082.69-1.6191,1.5152.2715,2.3438.4062,2.07-2.5659,5.3809-1.7553,7.8633-3.24l.69.6738a1.1015,1.1015,0,0,0,.416-1.0786c3.0337-.4057,5.7935-1.6206,8.8306-.271,3.1724-4.0488,4.001,4.5913,7.0381.6758,1.1025-1.35-.9673-2.9707,1.2412-3.9155l3.311.9448a6.2882,6.2882,0,0,0,3.7237-3.5093c.2773,0,.832,1.2149,1.2446.271v-.6753c1.2412,1.2149,2.3472-.2715,3.727.6753l.69-.9468C471.855,382.166,474.3374,380.2753,475.0273,382.2988Z" fill="none"/></clipPath><linearGradient id="linear-gradient" x1="2247.6274" y1="-785.2177" x2="2178.7083" y2="-785.2177" gradientTransform="translate(-7292.0431 2946.3121) scale(3.4633 3.326)" gradientUnits="userSpaceOnUse"><stop offset="0" stop-color="#054798"/><stop offset="1" stop-color="#901d81"/></linearGradient><linearGradient id="linear-gradient-2" x1="2302.458" y1="-785.2177" x2="2247.2427" y2="-785.2177" gradientTransform="translate(-7292.0431 2946.3121) scale(3.4633 3.326)" gradientUnits="userSpaceOnUse"><stop offset="0" stop-color="#5fbeb5"/><stop offset="1" stop-color="#054798"/></linearGradient><linearGradient id="linear-gradient-3" x1="2351.4113" y1="-785.2177" x2="2302.0731" y2="-785.2177" gradientTransform="translate(-7292.0431 2946.3121) scale(3.4633 3.326)" gradientUnits="userSpaceOnUse"><stop offset="0" stop-color="#054798"/><stop offset="1" stop-color="#5fbeb5"/></linearGradient><clipPath id="clip-path-4" transform="translate(-24.7666 -69.854)"><path d="M656.8516,282.2368s75.458-15.1587,125.4961-16.63c21.04-.6172,43.7539-.8447,55.2636,4.4819,20.7325,9.5918,30.3575,20.2158,30.3575,48.5957,0,33.7486-38.6368,51.2964-38.6368,51.2964s11.3457-9.9961,12.418-18.8989c2.76-22.9473-45.5332-13.499-75.8906-9.4483C715.2471,348.3862,640.293,378.08,640.293,378.08s56.5761-36.4458,45.5371-78.2939C682.5078,287.1962,656.8516,282.2368,656.8516,282.2368Z" fill="none" clip-rule="evenodd"/></clipPath><linearGradient id="linear-gradient-4" x1="2336.0851" y1="-810.3112" x2="2351.085" y2="-810.3112" gradientTransform="translate(-7292.0431 2946.3121) scale(3.4633 3.326)" gradientUnits="userSpaceOnUse"><stop offset="0" stop-color="#d90912"/><stop offset="1" stop-color="#ffed00"/></linearGradient><linearGradient id="linear-gradient-5" x1="2300.9725" y1="-810.2873" x2="2336.47" y2="-810.2873" gradientTransform="translate(-7292.0431 2946.3121) scale(3.4633 3.326)" gradientUnits="userSpaceOnUse"><stop offset="0" stop-color="#d90912"/><stop offset="1" stop-color="#d90912"/></linearGradient><linearGradient id="linear-gradient-6" x1="2283.0452" y1="-810.5483" x2="2305.8434" y2="-810.5483" gradientTransform="translate(-7292.0431 2946.3121) scale(3.4633 3.326)" gradientUnits="userSpaceOnUse"><stop offset="0" stop-color="#1d1d1b"/><stop offset="1" stop-color="#d90912"/></linearGradient><clipPath id="clip-path-5" transform="translate(-24.7666 -69.854)"><path d="M661.043,202.978s66.9951-13.18,106.1289-14.2359c17.3125-.4677,32.7627-1.9018,45.05,4.875,15.74,8.6773,25.39,15.5791,25.39,37.4483,0,26.0073-32.3125,39.53-32.3125,39.53s9.49-7.7012,10.3858-14.5625c2.3066-17.6856-38.0821-10.4034-63.4717-7.2823-42.334,5.2036-105.02,28.0874-105.02,28.0874s47.3193-28.0874,38.0859-60.3354C682.498,206.8012,661.043,202.978,661.043,202.978Z" fill="none" clip-rule="evenodd"/></clipPath><linearGradient id="linear-gradient-7" x1="2326.3856" y1="-837.5931" x2="2345.1987" y2="-839.9031" xlink:href="#linear-gradient-4"/><linearGradient id="linear-gradient-8" x1="2297.4107" y1="-833.8439" x2="2326.992" y2="-837.4761" xlink:href="#linear-gradient-5"/><linearGradient id="linear-gradient-9" x1="2281.8053" y1="-832.2306" x2="2309.4346" y2="-835.623" xlink:href="#linear-gradient-6"/><clipPath id="clip-path-6" transform="translate(-24.7666 -69.854)"><path d="M673.1094,138.2709s46.5176-10.18,79.1133-11.4072c11.2187-.4223,27.4863-1.478,38.1064,3.9365,12.68,6.4668,19.6846,12.43,19.6846,29.877,0,20.7485-25.0518,31.5371-25.0518,31.5371s7.3565-6.1455,8.05-11.6186c1.792-14.1094-29.5254-8.2984-49.2129-5.8106-32.8232,4.1528-81.4277,22.4082-81.4277,22.4082S699.0566,174.7851,691.9,149.059C689.7461,141.3173,673.1094,138.2709,673.1094,138.2709Z" fill="none" clip-rule="evenodd"/></clipPath><linearGradient id="linear-gradient-10" x1="2320.9333" y1="-858.6493" x2="2336.8782" y2="-860.8903" xlink:href="#linear-gradient-4"/><linearGradient id="linear-gradient-11" x1="2297.6488" y1="-856.2869" x2="2321.2635" y2="-859.6057" xlink:href="#linear-gradient-5"/><linearGradient id="linear-gradient-12" x1="2286.1466" y1="-854.9723" x2="2311.7612" y2="-858.5722" xlink:href="#linear-gradient-6"/><clipPath id="clip-path-7" transform="translate(-24.7666 -69.854)"><path d="M559.0723,385.9272l-5.9322.2012c-.477-.5342-1.4306-1.2017-.7509-1.9341C554.9126,384.06,557.2324,384.2607,559.0723,385.9272Zm14.4516-.2666c-4.1567,2.1338-8.0425-.7988-11.7934-1.666,1.16-1.8677,4.228-.5347,6.1352-.2681Zm40.021-3.6021v.7339a5.7757,5.7757,0,0,1-3.957-.4658l3.4766-.2681v-.2661A.6955.6955,0,0,1,613.5449,382.0585Zm-38.519-2.1337c0,2.5351-3.751,1.1333-5.4556,1.2016-.6123-.5342-2.249.1333-2.1816-1,.8188-1.4682,2.73-.0683,3.6831-1.2016C572.6377,378.5913,573.7305,379.5249,575.0259,379.9248Zm24.5434-1.4668c.3389,2.1342-1.4345,2.8017-3.0029,3.6-1.0215.4678-1.84-.7324-1.9077-1.4663a4.1265,4.1265,0,0,1,1.7046-3.6005A2.7872,2.7872,0,0,1,599.5693,378.458Z" fill="#fff" clip-rule="evenodd"/></clipPath><clipPath id="clip-path-8" transform="translate(-24.7666 -69.854)"><ellipse cx="591.2734" cy="246.4661" rx="149.7149" ry="146.4637" fill="none"/></clipPath></defs><title>partner</title><g id="Guías"><g clip-path="url(#clip-path)"><path d="M417.38,242.0327C417.38,146.94,496.1758,69.854,593.38,69.854c97.2016,0,175.9966,77.0859,175.9966,172.1787S690.582,414.2094,593.38,414.2094C496.1758,414.2094,417.38,337.1254,417.38,242.0327Z" transform="translate(-24.7666 -69.854)" fill="#d90912" fill-rule="evenodd"/><path d="M420.1294,242.0327c0-93.6084,77.5649-169.4893,173.251-169.4893,95.6821,0,173.2466,75.8809,173.2466,169.4893,0,93.6049-77.5645,169.4853-173.2466,169.4853C497.6943,411.518,420.1294,335.6376,420.1294,242.0327Z" transform="translate(-24.7666 -69.854)" fill="#da1c11" fill-rule="evenodd"/><path d="M422.8789,242.0327c0-92.1211,76.334-166.7984,170.5015-166.7984,94.1645,0,170.4975,74.6773,170.4975,166.7984,0,92.1191-76.333,166.7964-170.4975,166.7964C499.2129,408.8291,422.8789,334.1518,422.8789,242.0327Z" transform="translate(-24.7666 -69.854)" fill="#db2811" fill-rule="evenodd"/><path d="M425.6289,242.0307c0-90.6348,75.1025-164.1069,167.7515-164.1069,92.645,0,167.7485,73.4721,167.7485,164.1069S686.0254,406.14,593.38,406.14C500.7314,406.14,425.6289,332.6655,425.6289,242.0307Z" transform="translate(-24.7666 -69.854)" fill="#dc3210" fill-rule="evenodd"/><path d="M428.3784,242.0327c0-89.1509,73.8716-161.418,165.002-161.418,91.1274,0,164.9985,72.2671,164.9985,161.418,0,89.1484-73.8711,161.416-164.9985,161.416C502.25,403.4487,428.3784,331.1811,428.3784,242.0327Z" transform="translate(-24.7666 -69.854)" fill="#de3a10" fill-rule="evenodd"/><path d="M431.1279,242.0327c0-87.6646,72.6407-158.7271,162.2525-158.7271,89.6079,0,162.2485,71.0625,162.2485,158.7271,0,87.6626-72.6406,158.7246-162.2485,158.7246C503.7686,400.7573,431.1279,329.6953,431.1279,242.0327Z" transform="translate(-24.7666 -69.854)" fill="#df430f" fill-rule="evenodd"/><path d="M433.8774,242.0327c0-86.1787,71.4131-156.0376,159.503-156.0376S752.8789,155.854,752.8789,242.0327c0,86.1767-71.4082,156.0356-159.4985,156.0356S433.8774,328.2094,433.8774,242.0327Z" transform="translate(-24.7666 -69.854)" fill="#e14c0d" fill-rule="evenodd"/><path d="M436.6274,242.0327c0-84.6929,70.1783-153.3467,156.753-153.3467,86.5708,0,156.75,68.6538,156.75,153.3467,0,84.6909-70.1787,153.3442-156.7495,153.3442C506.8057,395.3769,436.6274,326.7236,436.6274,242.0327Z" transform="translate(-24.7666 -69.854)" fill="#e2540c" fill-rule="evenodd"/><ellipse cx="568.6139" cy="172.1767" rx="154.0004" ry="150.6553" fill="#e45d09"/><path d="M442.1265,242.0307c0-81.7187,67.7163-147.9658,151.2539-147.9658,83.5307,0,151.2466,66.2471,151.2466,147.9658,0,81.7207-67.7159,147.9658-151.2466,147.9658C509.8428,389.9965,442.1265,323.7514,442.1265,242.0307Z" transform="translate(-24.7666 -69.854)" fill="#e66407" fill-rule="evenodd"/><ellipse cx="568.6137" cy="172.1772" rx="148.5006" ry="145.2754" fill="#e76c04"/><path d="M447.6294,242.0327c0-78.7491,65.2539-142.586,145.751-142.586,80.4936,0,145.7475,63.8369,145.7475,142.586,0,78.7465-65.2539,142.5835-145.7475,142.5835C512.8833,384.6162,447.6294,320.7792,447.6294,242.0327Z" transform="translate(-24.7666 -69.854)" fill="#e97401" fill-rule="evenodd"/><path d="M450.3789,242.0327c0-77.2647,64.023-139.8965,143.0015-139.8965,78.9751,0,142.9985,62.6318,142.9985,139.8965,0,77.2607-64.0234,139.8925-142.9985,139.8925C514.4019,381.9252,450.3789,319.2934,450.3789,242.0327Z" transform="translate(-24.7666 -69.854)" fill="#ea7b00" fill-rule="evenodd"/><path d="M453.1284,242.0327c0-75.7769,62.792-137.2056,140.252-137.2056,77.4565,0,140.2485,61.4287,140.2485,137.2056S670.8369,379.2358,593.38,379.2358C515.92,379.2358,453.1284,317.809,453.1284,242.0327Z" transform="translate(-24.7666 -69.854)" fill="#ec8200" fill-rule="evenodd"/><path d="M455.8779,242.0327c0-74.2925,61.5611-134.5142,137.5025-134.5142,75.938,0,137.4985,60.2217,137.4985,134.5142,0,74.289-61.5605,134.5122-137.4985,134.5122C517.439,376.5449,455.8779,316.3217,455.8779,242.0327Z" transform="translate(-24.7666 -69.854)" fill="#ee8900" fill-rule="evenodd"/><path d="M458.6279,242.0307c0-72.8047,60.33-131.8232,134.7525-131.8232,74.4194,0,134.7485,59.0185,134.7485,131.8232,0,72.8067-60.3291,131.8233-134.7485,131.8233C518.9575,373.854,458.6279,314.8374,458.6279,242.0307Z" transform="translate(-24.7666 -69.854)" fill="#ef9100" fill-rule="evenodd"/><path d="M461.3774,242.0307c0-71.3188,59.0987-129.1338,132.003-129.1338,72.9009,0,132,57.815,132,129.1338S666.2813,371.1645,593.38,371.1645C520.4761,371.1645,461.3774,313.35,461.3774,242.0307Z" transform="translate(-24.7666 -69.854)" fill="#f19800" fill-rule="evenodd"/><ellipse cx="568.6137" cy="172.177" rx="129.2496" ry="126.4432" fill="#f39e00"/><path d="M466.88,242.0327c0-68.3487,56.6333-123.7535,126.5-123.7535,69.8637,0,126.4966,55.4048,126.4966,123.7535,0,68.3466-56.6329,123.7514-126.4966,123.7514C523.5132,365.7841,466.88,310.3793,466.88,242.0327Z" transform="translate(-24.7666 -69.854)" fill="#f5a500" fill-rule="evenodd"/><path d="M469.63,242.0327c0-66.8628,55.4018-121.0645,123.75-121.0645,68.3452,0,123.7466,54.2017,123.7466,121.0645,0,66.8608-55.4014,121.0605-123.7466,121.0605C525.0317,363.0932,469.63,308.8935,469.63,242.0327Z" transform="translate(-24.7666 -69.854)" fill="#f7ac00" fill-rule="evenodd"/><path d="M472.3794,242.0327c0-65.3765,54.1709-118.3731,121.001-118.3731,66.8227,0,120.9975,52.9966,120.9975,118.3731,0,65.3745-54.1748,118.3711-120.9975,118.3711C526.55,360.4038,472.3794,307.4072,472.3794,242.0327Z" transform="translate(-24.7666 -69.854)" fill="#f8b300" fill-rule="evenodd"/><path d="M475.1289,242.0307c0-63.89,52.9434-115.6821,118.2515-115.6821s118.2475,51.792,118.2475,115.6821S658.6885,357.7143,593.38,357.7143,475.1289,305.9213,475.1289,242.0307Z" transform="translate(-24.7666 -69.854)" fill="#faba00" fill-rule="evenodd"/><path d="M477.8784,242.0307c0-62.4043,51.709-112.9907,115.502-112.9907,63.7895,0,115.4985,50.5864,115.4985,112.9907S657.17,355.0234,593.38,355.0234C529.5874,355.0234,477.8784,304.4355,477.8784,242.0307Z" transform="translate(-24.7666 -69.854)" fill="#fcc000" fill-rule="evenodd"/><path d="M480.6284,242.0327c0-60.92,50.481-110.3018,112.752-110.3018s112.7485,49.3814,112.7485,110.3018c0,60.9165-50.4775,110.3-112.7485,110.3S480.6284,302.9492,480.6284,242.0327Z" transform="translate(-24.7666 -69.854)" fill="#fec700" fill-rule="evenodd"/><path d="M483.3779,242.0327c0-59.4346,49.25-107.6123,110.0025-107.6123,60.7485,0,109.9985,48.1777,109.9985,107.6123,0,59.4326-49.25,107.61-109.9985,107.61C532.6279,349.643,483.3779,301.4653,483.3779,242.0327Z" transform="translate(-24.7666 -69.854)" fill="#fec700" fill-rule="evenodd"/><path d="M486.1172,242.0327c0-57.9551,48.0224-104.9346,107.2632-104.9346S700.64,184.0776,700.64,242.0327c0,57.9531-48.0185,104.9326-107.2592,104.9326S486.1172,299.9858,486.1172,242.0327Z" transform="translate(-24.7666 -69.854)" fill="#fec900" fill-rule="evenodd"/><path d="M488.8535,242.0327c0-56.4771,46.7944-102.2583,104.5269-102.2583,57.7251,0,104.5239,45.7812,104.5239,102.2583,0,56.4736-46.7988,102.2544-104.5239,102.2544C535.6479,344.2871,488.8535,298.5063,488.8535,242.0327Z" transform="translate(-24.7666 -69.854)" fill="#ffcb00" fill-rule="evenodd"/><path d="M491.5894,242.0327c0-54.9976,45.5737-99.58,101.791-99.58s101.7876,44.5825,101.7876,99.58c0,54.9956-45.57,99.5781-101.7876,99.5781S491.5894,297.0283,491.5894,242.0327Z" transform="translate(-24.7666 -69.854)" fill="#ffce00" fill-rule="evenodd"/><path d="M494.3257,242.0327c0-53.5181,44.3457-96.9019,99.0547-96.9019,54.7055,0,99.0512,43.3838,99.0512,96.9019,0,53.5161-44.3457,96.9-99.0512,96.9C538.6714,338.9326,494.3257,295.5488,494.3257,242.0327Z" transform="translate(-24.7666 -69.854)" fill="#ffd000" fill-rule="evenodd"/><ellipse cx="568.6136" cy="172.1768" rx="96.315" ry="94.2237" fill="#ffd200"/><path d="M499.8013,242.0327c0-50.5625,41.894-91.5479,93.5791-91.5479,51.6821,0,93.5757,40.9854,93.5757,91.5479,0,50.5586-41.8936,91.5459-93.5757,91.5459C541.6953,333.5786,499.8013,292.5913,499.8013,242.0327Z" transform="translate(-24.7666 -69.854)" fill="#ffd400" fill-rule="evenodd"/><path d="M502.5376,242.0327c0-49.083,40.6694-88.87,90.8428-88.87,50.17,0,90.8393,39.7867,90.8393,88.87,0,49.081-40.6689,88.8676-90.8393,88.8676C543.207,330.9,502.5376,291.1137,502.5376,242.0327Z" transform="translate(-24.7666 -69.854)" fill="#ffd600" fill-rule="evenodd"/><path d="M505.2734,242.0327c0-47.6035,39.4454-86.1934,88.107-86.1934,48.6577,0,88.103,38.59,88.103,86.1934,0,47.6015-39.4453,86.1894-88.103,86.1894C544.7188,328.2221,505.2734,289.6342,505.2734,242.0327Z" transform="translate(-24.7666 -69.854)" fill="#ffd900" fill-rule="evenodd"/><path d="M508.01,242.0327c0-46.1255,38.2207-83.5152,85.3706-83.5152,47.146,0,85.3676,37.39,85.3676,83.5152,0,46.1235-38.2216,83.5131-85.3676,83.5131C546.2305,325.5458,508.01,288.1562,508.01,242.0327Z" transform="translate(-24.7666 -69.854)" fill="#ffdb00" fill-rule="evenodd"/><path d="M510.749,242.0327c0-44.6475,36.9932-80.8374,82.6314-80.8374,45.6342,0,82.6313,36.19,82.6313,80.8374,0,44.644-36.9971,80.8354-82.6313,80.8354C547.7422,322.8681,510.749,286.6767,510.749,242.0327Z" transform="translate(-24.7666 -69.854)" fill="#fd0" fill-rule="evenodd"/><path d="M513.4854,242.0327c0-43.168,35.769-78.1612,79.895-78.1612,44.1225,0,79.8911,34.9932,79.8911,78.1612,0,43.166-35.7686,78.1587-79.8911,78.1587C549.2544,320.1914,513.4854,285.1987,513.4854,242.0327Z" transform="translate(-24.7666 -69.854)" fill="#ffdf00" fill-rule="evenodd"/><path d="M516.2212,242.0307c0-41.687,34.5449-75.4809,77.1592-75.4809,42.6108,0,77.1548,33.7939,77.1548,75.4809,0,41.6885-34.544,75.4829-77.1548,75.4829C550.7661,317.5136,516.2212,283.7192,516.2212,242.0307Z" transform="translate(-24.7666 -69.854)" fill="#ffe100" fill-rule="evenodd"/><path d="M518.9575,242.0307c0-40.209,33.32-72.8027,74.4229-72.8027,41.0991,0,74.4194,32.5937,74.4194,72.8027s-33.32,72.8047-74.4194,72.8047C552.2778,314.8354,518.9575,282.24,518.9575,242.0307Z" transform="translate(-24.7666 -69.854)" fill="#ffe300" fill-rule="evenodd"/><path d="M521.6934,242.0327c0-38.7315,32.0962-70.1285,71.687-70.1285s71.6831,31.397,71.6831,70.1285c0,38.73-32.0928,70.125-71.6831,70.125S521.6934,280.7622,521.6934,242.0327Z" transform="translate(-24.7666 -69.854)" fill="#ffe500" fill-rule="evenodd"/><path d="M524.4331,242.0327c0-37.252,30.8648-67.4507,68.9473-67.4507,38.0747,0,68.9477,30.1987,68.9477,67.4507s-30.873,67.4487-68.9477,67.4487C555.2979,309.4814,524.4331,279.2841,524.4331,242.0327Z" transform="translate(-24.7666 -69.854)" fill="#ffe700" fill-rule="evenodd"/><path d="M527.1689,242.0327c0-35.774,29.6441-64.7725,66.2115-64.7725s66.2075,28.9985,66.2075,64.7725c0,35.7719-29.6406,64.7705-66.2075,64.7705S527.1689,277.8046,527.1689,242.0327Z" transform="translate(-24.7666 -69.854)" fill="#ffe900" fill-rule="evenodd"/><path d="M529.9053,242.0307c0-34.2944,28.416-62.0942,63.4751-62.0942,35.0551,0,63.4712,27.8,63.4712,62.0942S628.4355,304.125,593.38,304.125C558.3213,304.125,529.9053,276.3251,529.9053,242.0307Z" transform="translate(-24.7666 -69.854)" fill="#ffeb00" fill-rule="evenodd"/><path d="M532.6445,242.0327c0-32.8169,27.1924-59.418,60.7359-59.418s60.7348,26.6011,60.7348,59.418c0,32.8149-27.1914,59.416-60.7348,59.416S532.6445,274.8476,532.6445,242.0327Z" transform="translate(-24.7666 -69.854)" fill="#ffed00" fill-rule="evenodd"/><path d="M535.3774,242.0327c0-31.3374,25.9678-56.7417,58.003-56.7417,32.0317,0,57.9966,25.4043,57.9966,56.7417s-25.9649,56.74-57.9966,56.74C561.3452,298.7724,535.3774,273.37,535.3774,242.0327Z" transform="translate(-24.7666 -69.854)" fill="#ffed00" fill-rule="evenodd"/><path d="M564.3789,242.0327c0-15.669,12.9839-28.3716,29.0015-28.3716,16.0141,0,28.9985,12.7026,28.9985,28.3716s-12.9844,28.3681-28.9985,28.3681C577.3628,270.4008,564.3789,257.7011,564.3789,242.0327Z" transform="translate(-24.7666 -69.854)" fill="#ffed00" fill-rule="evenodd"/></g><polygon points="410.623 208.334 416.832 206.984 427.178 200.909 450.636 202.934 459.605 191.46 483.754 186.736 457.536 184.709 446.497 195.509 425.802 195.509 410.623 208.334" fill="#009fe3" fill-rule="evenodd"/><polygon points="466.634 231.744 471.615 230.663 479.912 225.79 498.723 227.414 505.913 218.214 525.275 214.426 504.252 212.802 495.401 221.461 478.806 221.461 466.634 231.744" fill="#009fe3" fill-rule="evenodd"/><polygon points="346.59 250.644 351.568 249.561 359.864 244.689 378.676 246.313 385.866 237.113 405.232 233.324 384.208 231.702 375.354 240.361 358.758 240.361 346.59 250.644" fill="#009fe3" fill-rule="evenodd"/><g clip-path="url(#clip-path-2)"><path d="M290.2944,400.0542c0-91.3687,75.7115-165.4356,169.1079-165.4356,93.3995,0,169.1114,74.0669,169.1114,165.4356s-75.7119,165.437-169.1114,165.437C366.0059,565.4912,290.2944,491.4228,290.2944,400.0542Z" transform="translate(-24.7666 -69.854)" fill="#005e26" fill-rule="evenodd"/><ellipse cx="434.6357" cy="330.2005" rx="166.3887" ry="162.7757" fill="#006027"/><ellipse cx="434.6357" cy="330.2002" rx="163.6729" ry="160.1167" fill="#006228"/><path d="M298.4521,400.0542c0-86.961,72.0586-157.4566,160.95-157.4566,88.8946,0,160.9532,70.4956,160.9532,157.4566S548.2969,557.5107,459.4023,557.5107C370.5107,557.5107,298.4521,487.0166,298.4521,400.0542Z" transform="translate(-24.7666 -69.854)" fill="#006429" fill-rule="evenodd"/><ellipse cx="434.6357" cy="330.2007" rx="158.2344" ry="154.7969" fill="#00662a"/><ellipse cx="434.6358" cy="330.2006" rx="155.5156" ry="152.1367" fill="#00682b"/><path d="M306.6064,400.0542c0-82.5552,68.4058-149.4776,152.7959-149.4776S612.1982,317.499,612.1982,400.0542c0,82.5571-68.4062,149.48-152.7959,149.48S306.6064,482.6113,306.6064,400.0542Z" transform="translate(-24.7666 -69.854)" fill="#006a2b" fill-rule="evenodd"/><path d="M309.3257,400.0542c0-81.0855,67.1885-146.8174,150.0766-146.8174s150.0762,65.7319,150.0762,146.8174c0,81.0874-67.188,146.82-150.0762,146.82S309.3257,481.1416,309.3257,400.0542Z" transform="translate(-24.7666 -69.854)" fill="#006b2c" fill-rule="evenodd"/><path d="M312.0449,400.0542c0-79.6172,65.9707-144.1592,147.3574-144.1592s147.3614,64.542,147.3614,144.1592-65.9751,144.16-147.3614,144.16S312.0449,479.6718,312.0449,400.0542Z" transform="translate(-24.7666 -69.854)" fill="#006d2d" fill-rule="evenodd"/><ellipse cx="434.6357" cy="330.2007" rx="144.6416" ry="141.501" fill="#006f2e"/><ellipse cx="434.6356" cy="330.2004" rx="141.922" ry="138.8406" fill="#00712f"/><path d="M320.1987,400.0542c0-75.2115,62.3218-136.1817,139.2036-136.1817s139.2071,60.97,139.2071,136.1817c0,75.2133-62.3257,136.1821-139.2071,136.1821S320.1987,475.2675,320.1987,400.0542Z" transform="translate(-24.7666 -69.854)" fill="#007330" fill-rule="evenodd"/><path d="M322.918,400.0542c0-73.7417,61.1045-133.522,136.4843-133.522S595.89,326.3125,595.89,400.0542c0,73.7436-61.1074,133.5219-136.4873,133.5219S322.918,473.7978,322.918,400.0542Z" transform="translate(-24.7666 -69.854)" fill="#007530" fill-rule="evenodd"/><ellipse cx="434.6356" cy="330.2004" rx="133.7682" ry="130.8621" fill="#007731"/><path d="M328.353,400.0542c0-70.8052,58.6724-128.2017,131.0493-128.2017S590.4512,329.249,590.4512,400.0542,531.7788,528.2578,459.4023,528.2578,328.353,470.86,328.353,400.0542Z" transform="translate(-24.7666 -69.854)" fill="#007932" fill-rule="evenodd"/><ellipse cx="434.6356" cy="330.2005" rx="128.3297" ry="125.5433" fill="#007b33"/><ellipse cx="434.6357" cy="330.2005" rx="125.6109" ry="122.8832" fill="#007d34"/><path d="M336.5107,400.0542c0-66.3995,55.02-120.2242,122.8916-120.2242s122.8951,53.8247,122.8951,120.2242S527.2739,520.2783,459.4023,520.2783,336.5107,466.4541,336.5107,400.0542Z" transform="translate(-24.7666 -69.854)" fill="#007f34" fill-rule="evenodd"/><ellipse cx="434.6357" cy="330.2002" rx="120.1758" ry="117.566" fill="#008135"/><ellipse cx="434.6357" cy="330.2002" rx="117.4566" ry="114.9058" fill="#008336"/><path d="M344.665,400.0542c0-61.9937,51.3706-112.2471,114.7373-112.2471,63.37,0,114.7408,50.2534,114.7408,112.2471S522.7725,512.3017,459.4023,512.3017C396.0356,512.3017,344.665,462.0478,344.665,400.0542Z" transform="translate(-24.7666 -69.854)" fill="#008537" fill-rule="evenodd"/><ellipse cx="434.6357" cy="330.2003" rx="112.0181" ry="109.5871" fill="#008737"/><path d="M350.1,400.0542c0-59.0542,48.9351-106.9268,109.3022-106.9268S568.7046,341,568.7046,400.0542c0,59.0561-48.9356,106.9291-109.3023,106.9291S350.1,459.11,350.1,400.0542Z" transform="translate(-24.7666 -69.854)" fill="#008938" fill-rule="evenodd"/><ellipse cx="434.6357" cy="330.2003" rx="106.5831" ry="104.2668" fill="#008c39"/><ellipse cx="434.6357" cy="330.2005" rx="103.8638" ry="101.6087" fill="#078e3a"/><path d="M358.2573,400.0542c0-54.65,45.2832-98.95,101.145-98.95s101.148,44.3,101.148,98.95-45.2861,98.95-101.148,98.95S358.2573,454.7041,358.2573,400.0542Z" transform="translate(-24.7666 -69.854)" fill="#12903b" fill-rule="evenodd"/><ellipse cx="434.6356" cy="330.2004" rx="98.4254" ry="96.2898" fill="#19923c"/><path d="M363.6924,400.0542c0-51.71,42.8511-93.6294,95.71-93.6294s95.7095,41.9189,95.7095,93.6294c0,51.7124-42.8511,93.6313-95.7095,93.6313S363.6924,451.7666,363.6924,400.0542Z" transform="translate(-24.7666 -69.854)" fill="#20943c" fill-rule="evenodd"/><path d="M366.4116,400.0542c0-50.2422,41.6338-90.9693,92.9907-90.9693s92.99,40.7271,92.99,90.9693-41.6333,90.9711-92.99,90.9711S366.4116,450.2958,366.4116,400.0542Z" transform="translate(-24.7666 -69.854)" fill="#25963d" fill-rule="evenodd"/><ellipse cx="434.6356" cy="330.2001" rx="90.2711" ry="88.3124" fill="#2a983e"/><path d="M371.85,400.0542c0-47.3042,39.1982-85.65,87.5522-85.65s87.5518,38.3462,87.5518,85.65c0,47.3061-39.1982,85.6518-87.5518,85.6518S371.85,447.36,371.85,400.0542Z" transform="translate(-24.7666 -69.854)" fill="#2f9a3f" fill-rule="evenodd"/><ellipse cx="434.6356" cy="330.2" rx="84.8361" ry="82.992" fill="#339d3f"/><ellipse cx="434.6357" cy="330.2" rx="82.1172" ry="80.3319" fill="#389f40"/><path d="M380.0044,400.0542c0-42.8985,35.5459-77.6734,79.3979-77.6734S538.8,357.1557,538.8,400.0542s-35.5459,77.6752-79.398,77.6752S380.0044,442.9521,380.0044,400.0542Z" transform="translate(-24.7666 -69.854)" fill="#3ca141" fill-rule="evenodd"/><ellipse cx="434.6357" cy="330.2003" rx="76.6788" ry="75.0148" fill="#40a342"/><path d="M385.4429,400.0561c0-39.9624,33.11-72.3564,73.9594-72.3564s73.9595,32.394,73.9595,72.3564c0,39.96-33.1108,72.353-73.9595,72.353S385.4429,440.0166,385.4429,400.0561Z" transform="translate(-24.7666 -69.854)" fill="#44a643" fill-rule="evenodd"/><ellipse cx="434.6357" cy="330.2003" rx="71.2437" ry="69.6964" fill="#48a843"/><path d="M390.8813,400.0542c0-37.0225,30.6753-67.0347,68.521-67.0347s68.5245,30.0122,68.5245,67.0347-30.6788,67.0366-68.5245,67.0366S390.8813,437.0771,390.8813,400.0542Z" transform="translate(-24.7666 -69.854)" fill="#4caa44" fill-rule="evenodd"/><path d="M393.5972,400.0542c0-35.5547,29.4609-64.376,65.8051-64.376s65.8052,28.8213,65.8052,64.376-29.4614,64.3784-65.8052,64.3784S393.5972,435.6083,393.5972,400.0542Z" transform="translate(-24.7666 -69.854)" fill="#50ad45" fill-rule="evenodd"/><path d="M396.3164,400.0542c0-34.085,28.2437-61.7159,63.0859-61.7159s63.086,27.6309,63.086,61.7159-28.2437,61.7182-63.086,61.7182S396.3164,434.1406,396.3164,400.0542Z" transform="translate(-24.7666 -69.854)" fill="#54af46" fill-rule="evenodd"/><path d="M399.0322,400.0542c0-32.6167,27.0293-59.0572,60.37-59.0572s60.37,26.44,60.37,59.0572c0,32.6186-27.03,59.0581-60.37,59.0581S399.0322,432.6728,399.0322,400.0542Z" transform="translate(-24.7666 -69.854)" fill="#58b147" fill-rule="evenodd"/><ellipse cx="434.6356" cy="330.2002" rx="57.651" ry="56.399" fill="#58b147"/><path d="M404.4976,400.0542c0-29.6661,24.581-53.7125,54.9047-53.7125s54.9048,24.0464,54.9048,53.7125-24.581,53.7143-54.9048,53.7143S404.4976,429.72,404.4976,400.0542Z" transform="translate(-24.7666 -69.854)" fill="#66b344" fill-rule="evenodd"/><ellipse cx="434.6357" cy="330.2003" rx="52.1587" ry="51.0285" fill="#72b541"/><path d="M409.99,400.0542c0-26.6973,22.1226-48.34,49.4126-48.34,27.2935,0,49.4156,21.6431,49.4156,48.34s-22.1221,48.3422-49.4156,48.3422C432.1123,448.3964,409.99,426.7529,409.99,400.0542Z" transform="translate(-24.7666 -69.854)" fill="#7eb63e" fill-rule="evenodd"/><ellipse cx="434.6357" cy="330.2002" rx="46.6695" ry="45.6558" fill="#89b83b"/><path d="M415.479,400.0542c0-23.7315,19.6636-42.97,43.9233-42.97s43.9263,19.2383,43.9263,42.97-19.6665,42.9721-43.9263,42.9721S415.479,423.7861,415.479,400.0542Z" transform="translate(-24.7666 -69.854)" fill="#93ba38" fill-rule="evenodd"/><path d="M418.2222,400.0542c0-22.2491,18.4389-40.2837,41.18-40.2837s41.18,18.0346,41.18,40.2837-18.4389,40.2856-41.18,40.2856S418.2222,422.3037,418.2222,400.0542Z" transform="translate(-24.7666 -69.854)" fill="#9cbb35" fill-rule="evenodd"/><path d="M420.9683,400.0542c0-20.7647,17.208-37.5977,38.434-37.5977s38.4341,16.833,38.4341,37.5977c0,20.7666-17.208,37.5991-38.4341,37.5991S420.9683,420.8208,420.9683,400.0542Z" transform="translate(-24.7666 -69.854)" fill="#a4bd31" fill-rule="evenodd"/><ellipse cx="434.6356" cy="330.2003" rx="35.6876" ry="34.9132" fill="#acbe2e"/><path d="M426.4609,400.0542c0-17.7994,14.7456-32.2271,32.9414-32.2271s32.9449,14.4277,32.9449,32.2271-14.75,32.229-32.9449,32.229S426.4609,417.8535,426.4609,400.0542Z" transform="translate(-24.7666 -69.854)" fill="#b4bf29" fill-rule="evenodd"/><path d="M429.207,400.0542c0-16.3165,13.5181-29.5425,30.1953-29.5425s30.1988,13.226,30.1988,29.5425-13.522,29.5424-30.1988,29.5424S429.207,416.371,429.207,400.0542Z" transform="translate(-24.7666 -69.854)" fill="#bcc025" fill-rule="evenodd"/><path d="M431.95,400.0542c0-14.8321,12.2905-26.8565,27.4526-26.8565s27.4522,12.0244,27.4522,26.8565-12.29,26.8569-27.4522,26.8569S431.95,414.8867,431.95,400.0542Z" transform="translate(-24.7666 -69.854)" fill="#c4c220" fill-rule="evenodd"/><path d="M434.6963,400.0542c0-13.3492,11.0625-24.17,24.706-24.17s24.7061,10.8208,24.7061,24.17-11.063,24.17-24.7061,24.17S434.6963,413.4038,434.6963,400.0542Z" transform="translate(-24.7666 -69.854)" fill="#cbc31a" fill-rule="evenodd"/><path d="M437.439,400.0542A21.9687,21.9687,0,1,1,459.4023,421.54,21.7276,21.7276,0,0,1,437.439,400.0542Z" transform="translate(-24.7666 -69.854)" fill="#d2c312" fill-rule="evenodd"/><path d="M440.1851,400.0542a19.2216,19.2216,0,1,1,19.2172,18.8A19.0107,19.0107,0,0,1,440.1851,400.0542Z" transform="translate(-24.7666 -69.854)" fill="#d9c407" fill-rule="evenodd"/><path d="M442.9316,400.0542a16.4747,16.4747,0,1,1,16.4707,16.1137A16.2947,16.2947,0,0,1,442.9316,400.0542Z" transform="translate(-24.7666 -69.854)" fill="#dfc500" fill-rule="evenodd"/><path d="M445.6777,400.0542a13.7279,13.7279,0,1,1,13.7246,13.4291A13.579,13.579,0,0,1,445.6777,400.0542Z" transform="translate(-24.7666 -69.854)" fill="#e6c500" fill-rule="evenodd"/><path d="M448.42,400.0542a10.9843,10.9843,0,1,1,10.9819,10.7431A10.8653,10.8653,0,0,1,448.42,400.0542Z" transform="translate(-24.7666 -69.854)" fill="#ecc600" fill-rule="evenodd"/><path d="M451.167,400.0542a8.2373,8.2373,0,1,1,8.2353,8.0571A8.147,8.147,0,0,1,451.167,400.0542Z" transform="translate(-24.7666 -69.854)" fill="#f2c600" fill-rule="evenodd"/><path d="M453.9131,400.0542a5.492,5.492,0,1,1,5.4892,5.3706A5.4323,5.4323,0,0,1,453.9131,400.0542Z" transform="translate(-24.7666 -69.854)" fill="#f8c700" fill-rule="evenodd"/><path d="M456.6558,400.0542a2.747,2.747,0,1,1,2.7465,2.6845A2.7173,2.7173,0,0,1,456.6558,400.0542Z" transform="translate(-24.7666 -69.854)" fill="#fec700" fill-rule="evenodd"/></g><path d="M498.6685,367.6538c.48,3.602-4.2247,1.0669-6.1353,2.1337-.5444.0665-2.1816-.2-1.9751-1.2,1.772-2.2686,5.249-.5992,7.6367-1.4014Z" transform="translate(-24.7666 -69.854)" fill="#fff"/><path d="M452.31,369.5878v.9336c-3.0674-.2-5.3169.6011-8.1138-.7339-.4058-.8671.751-1.3334,1.2309-1.6665C448.0181,367.186,450.1284,368.7207,452.31,369.5878Z" transform="translate(-24.7666 -69.854)" fill="#fff"/><path d="M424.77,374.1235c.2032,1.8677-2.1137,1.2671-2.6582,2.4-1.84.2666-3.8891-.2-4.7046-1.4-.3413-.9336.7476-1.4,1.2281-1.7344C420.542,373.3212,423.542,372.4555,424.77,374.1235Z" transform="translate(-24.7666 -69.854)" fill="#fff"/><path d="M446.8579,374.59a1.4254,1.4254,0,0,1-.957,1.7344c-.9536.5991-1.7046-.5342-2.4522-1.2a.9375.9375,0,0,1,.7476-1.2017C444.9473,374.5229,446.2427,373.6557,446.8579,374.59Z" transform="translate(-24.7666 -69.854)" fill="#fff"/><path d="M502.6255,376.5239c-2.2525.5327-5.9321,1.1338-7.6367-.4678.2026-2.8682,3.9536-1.4663,5.8642-2.1338A3.0227,3.0227,0,0,1,502.6255,376.5239Z" transform="translate(-24.7666 -69.854)" fill="#fff"/><path d="M383.3188,382.0585c-.8183,1.9361-3.3413,1.5347-4.9106,1.2017-1.1567-.6006-1.7725-3.2676-3.2031-1.2017-1.16,2.8033-4.43,1.6011-6.8858,1.9361-.9536-.6011-.68-2.0694,0-2.8682,1.2954-1.4014,2.2491-3.1343,4.2276-3.4023C375.5469,381.3261,380.9985,377.4575,383.3188,382.0585Z" transform="translate(-24.7666 -69.854)" fill="#fff"/><path d="M398.998,382.5263c-.2026.7339-.3378,2.001-1.4306,1.9341-1.2276-.1333-3.4092.4014-3.2027-1.4663-.0708-1,1.1568-1.1353,1.7046-1.668C397.2261,381.26,398.66,381.1928,398.998,382.5263Z" transform="translate(-24.7666 -69.854)" fill="#fff"/><path d="M345.7539,389.2626l-.2026.7339-5.9326-1c-.274-.6674.477-1.2021,1.0249-1.4018C342.7539,387.1953,344.3911,388.3291,345.7539,389.2626Z" transform="translate(-24.7666 -69.854)" fill="#fff"/><path d="M322.438,397.6655c.4092,1.8677-.4771,3.269-1.4307,4.5356a14.9242,14.9242,0,0,1-5.9321,3.1363c-2.8613-.5347-6.27-1.4019-7.3594-4.5362C307.1,398,310.5093,399,311.8721,399.1333c1.7724,1.3334,4.4306,1.3334,6.68.934C320.3242,399.8676,320.3916,397.0659,322.438,397.6655Z" transform="translate(-24.7666 -69.854)" fill="#005e26"/><g clip-path="url(#clip-path-3)"><rect x="253.4775" y="310.1748" width="238.6875" height="49.0063" fill="url(#linear-gradient)"/><rect x="490.8325" y="310.1748" width="191.2271" height="49.0063" fill="url(#linear-gradient-2)"/><rect x="680.7266" y="310.1748" width="170.873" height="49.0063" fill="url(#linear-gradient-3)"/></g><path d="M473.6475,388.1049H471.99c-.4126-1.08,1.106-.9453,1.6573-.9453Z" transform="translate(-24.7666 -69.854)" fill="#fff"/><path d="M457.0889,395.2587c-.9639.4058-2.2051,2.2964-3.3111.6753C454.1938,393.7744,456.5376,395.7993,457.0889,395.2587Z" transform="translate(-24.7666 -69.854)" fill="#fff"/><path d="M465.3682,395.2587c-.9639.5406-1.7925,1.7554-3.3111,1.3511l.416-1.6206C463.5757,394.7192,464.2656,395.53,465.3682,395.2587Z" transform="translate(-24.7666 -69.854)" fill="#fff"/><polygon points="675.177 325.405 675.177 325.135 676.83 325.405 675.177 325.405" fill="#1d1d1b"/><path d="M447.8457,396.61a6.3162,6.3162,0,0,1-1.9311,3.24c-1.2447.1347-1.7925-.6753-3.0372-.4043.1387-1.0816-.4126-2.4312.69-3.2417l-.2774.4062.5547.5391C443.4321,394.9892,446.8784,395.934,447.8457,396.61Z" transform="translate(-24.7666 -69.854)" fill="#fff"/><path d="M484.6865,399.85c-2.07.81-3.727-1.35-5.6582-2.0249-1.6538.539-4.8262.539-4.9682-1.2149C478.0645,396.61,482.3394,397.2836,484.6865,399.85Z" transform="translate(-24.7666 -69.854)" fill="#fff"/><path d="M437.9126,398.77c-.1387-.1362-.2773-.4058-.69-.2695l1.38-.9449Z" transform="translate(-24.7666 -69.854)" fill="#fff"/><path d="M406.1748,398.229c0,.6738-.8286.5405-1.38.5405h-.9673C404.105,398.0942,405.62,398.9028,406.1748,398.229Z" transform="translate(-24.7666 -69.854)" fill="#fff"/><path d="M450.8794,398.5c-.1353.4028.2773,1.0786-.4126,1.35-.2773,0-.4126-.271-.5513-.4043C449.5,398.6333,450.4668,398.77,450.8794,398.5Z" transform="translate(-24.7666 -69.854)" fill="#fff"/><path d="M429.356,399.85a14.8681,14.8681,0,0,0-2.6211.9438l-.4161-.4048A6.79,6.79,0,0,1,429.356,399.85Z" transform="translate(-24.7666 -69.854)" fill="#fff"/><path d="M490.2065,400.7934c-.8286.1362-1.7929.4058-1.9316-.6743Z" transform="translate(-24.7666 -69.854)" fill="#fff"/><path d="M502.4868,403.3593c-3.311,1.89-6.4834-3.6445-9.9331-.2695.4126-2.5659,1.7925-.8106,3.311-2.0269C498.4858,400.7934,500.0044,404.3042,502.4868,403.3593Z" transform="translate(-24.7666 -69.854)" fill="#fff"/><path d="M829.3721,402.6835c.69,1.6207-1.1065,2.566-2.3467,2.566-.8291-.9453-3.5889.8086-2.8984-1.6206C826.1963,402.414,827.5762,404.9785,829.3721,402.6835Z" transform="translate(-24.7666 -69.854)" fill="#fff"/><path d="M837.374,405.9233c-1.792-1.08-4.8291-.6738-5.6582-2.564C833.65,404.1679,838.3418,402.8183,837.374,405.9233Z" transform="translate(-24.7666 -69.854)" fill="#fff"/><polygon points="589.623 334.855 589.075 333.775 589.623 333.775 589.623 334.855" fill="#fff"/><path d="M395.5483,404.9785c-1.7924.4057-3.1723,1.89-5.2421,1.6191A18.3079,18.3079,0,0,1,395.5483,404.9785Z" transform="translate(-24.7666 -69.854)" fill="#fff"/><path d="M547.8843,406.3281c.5512.9448,2.76.2695,2.3471,1.89-4.14.2695-8.2793-2.834-12.5576-.27l.274-.4063c-2.6211.4063-5.2422-.539-7.5894-1.6191v-.9448C536.0166,407.0034,542.0874,405.1132,547.8843,406.3281Z" transform="translate(-24.7666 -69.854)" fill="#fff"/><path d="M658.5469,404.9785c-.2744.9448-.8262,2.2944-2.07,2.2944C655.374,405.9233,657.0313,404.5742,658.5469,404.9785Z" transform="translate(-24.7666 -69.854)" fill="#fff"/><path d="M675.3828,405.9233c.2735.81-.69,1.4844-1.3808,1.6191h-1.2442c-.4121-1.2143.416-1.4843,1.2442-1.89C674.415,405.6523,675.1055,405.3842,675.3828,405.9233Z" transform="translate(-24.7666 -69.854)" fill="#fff"/><path d="M639.6445,407.2729c-.8291,0-1.6582,1.2148-2.3476.2695C637.0225,405.9233,640.0566,405.3842,639.6445,407.2729Z" transform="translate(-24.7666 -69.854)" fill="#fff"/><path d="M562.0957,407.2729l-.9673-.4043c-.1352-.5405.5547-.6753.9673-.5405Z" transform="translate(-24.7666 -69.854)" fill="#fff"/><rect x="493.0376" y="336.7436" width="0.9673" height="1.6206" fill="#fff"/><path d="M557.8174,407.2729v.9453c-1.7925-.6758-4.2783,1.4844-4.9683-.6758C554.0938,406.4643,556.2988,406.8686,557.8174,407.2729Z" transform="translate(-24.7666 -69.854)" fill="#fff"/><path d="M629.2949,408.4877c-2.3476.6758-4.9687,2.0254-7.59,1.0816-.4121-1.3511-2.76,0-1.9317-2.0269C622.8105,407.5424,627.6367,405.519,629.2949,408.4877Z" transform="translate(-24.7666 -69.854)" fill="#fff"/><path d="M360.5034,407.9487c-7.5893,2.43-15.5947,4.05-23.1846,6.0737-3.45-4.1836-6.4834,1.2149-10.623-.2695-3.727,2.0254-8.418,4.32-12.5576,1.89l-2.07.6743c-.5513-.2695-.274-1.08-.274-1.6191l10.2105-1.6211v-.2695c.8286,1.2148,1.6538-.1348,3.0337-.4058.9673.6753,2.76-.6738,3.5884.6753l.416-1.3491.5478.6738.69-.9438c1.6572.9438,4.6943-.27,6.3481-.27a173.7884,173.7884,0,0,0,20.1475-3.24c.69-1.4844,2.3471,0,3.727-.4063Z" transform="translate(-24.7666 -69.854)" fill="#901d81"/><path d="M616.0469,409.5693v.5395c-1.5156.4043-3.3106-1.08-2.2051-2.5664C615.6348,406.8686,615.4961,408.4877,616.0469,409.5693Z" transform="translate(-24.7666 -69.854)" fill="#fff"/><path d="M377.3359,408.2182h0Z" transform="translate(-24.7666 -69.854)" fill="#fff"/><path d="M809.7793,408.4877c.4131,1.2149-.5547,1.3511-1.2441,1.6211-.4122.1348-.5508-.1367-.69-.27C807.1553,408.353,808.9473,408.6245,809.7793,408.4877Z" transform="translate(-24.7666 -69.854)" fill="#fff"/><path d="M527.7373,410.1088c-1.1025.27-1.1025-.27-1.38-.9453h1.38Z" transform="translate(-24.7666 -69.854)" fill="#fff"/><path d="M662.1348,410.5131c-.1387.4043.2734,1.08-.2735,1.2149-1.5224.5405-1.9355-1.2149-1.6582-2.1587C661.0293,409.1635,661.584,409.9721,662.1348,410.5131Z" transform="translate(-24.7666 -69.854)" fill="#fff"/><rect x="498.0024" y="339.9848" width="0.5547" height="0.6743" fill="#fff"/><path d="M772.7969,412.1323v.9448a61.242,61.242,0,0,1-13.2442.9453c-3.1757,1.08,2.4825,3.5112-1.3808,3.6445-.9668-1.0786-.69-3.2382-2.6211-3.2382-2.208.8086-4.9678.8086-7.3145,1.2143,0-.2695.1387-.81-.2744-.9448,7.45.8086,12.419-6.75,19.8662-4.1851C769.4854,411.0537,770.8652,411.999,772.7969,412.1323Z" transform="translate(-24.7666 -69.854)" fill="#fff"/><path d="M532.293,410.7827v.4057h-.9673v-.6753C531.603,410.5131,532.1543,410.3784,532.293,410.7827Z" transform="translate(-24.7666 -69.854)" fill="#fff"/><path d="M790.3223,412.4018c-1.1055,0-2.4854.9453-3.3106-.2695-.2773-1.35,1.2412-1.2149,1.9317-1.6192h1.3789Z" transform="translate(-24.7666 -69.854)" fill="#fff"/><path d="M587.3467,411.1884c0,.27,0,.8106-.4126.9439-.4126-.1333-1.1026.2695-1.2446-.4043A.9262.9262,0,0,1,587.3467,411.1884Z" transform="translate(-24.7666 -69.854)" fill="#fff"/><path d="M606.8037,412.1323a45.166,45.166,0,0,1-7.5889.6753v-1.35c2.76,1.35,4.8291-1.3492,7.5889,0Z" transform="translate(-24.7666 -69.854)" fill="#fff"/><path d="M781.0762,414.0224c-1.2422,0-3.0342.2695-3.3116-1.2148l.2774-1.08C779.1445,412.4018,781.0762,412.9443,781.0762,414.0224Z" transform="translate(-24.7666 -69.854)" fill="#fff"/><path d="M822.0566,414.4287v.539c-.8252,0-4.14.5391-3.3105-1.8906A3.1984,3.1984,0,0,1,822.0566,414.4287Z" transform="translate(-24.7666 -69.854)" fill="#fff"/><path d="M715.1221,413.3471c.4131,1.2163-.6905,1.7554-.9678,2.7007h-.9668C712.7754,415.1025,713.6035,413.0771,715.1221,413.3471Z" transform="translate(-24.7666 -69.854)" fill="#fff"/><path d="M816.8145,414.6982c-.8282-.1348-2.3477.4043-2.07-.9453h2.07Z" transform="translate(-24.7666 -69.854)" fill="#fff"/><polygon points="594.04 345.519 593.628 344.168 595.284 344.844 594.04 345.519" fill="#1d1d1b"/><path d="M666.1357,416.3173a1.0676,1.0676,0,0,1-1.6572.271v-1.2148C665.4453,415.2373,665.8584,415.3735,666.1357,416.3173Z" transform="translate(-24.7666 -69.854)" fill="#fff"/><path d="M808.8125,415.643c.1348.8091-1.1025,1.2149-1.9316,1.35-1.24.27-2.0723-.4043-3.0371-.6753C804.8086,414.1572,807.71,416.4521,808.8125,415.643Z" transform="translate(-24.7666 -69.854)" fill="#fff"/><path d="M772.3838,418.2075c-3.3115-2.16-5.6582.9453-9.2432.4043.5508-2.16,3.585-.9449,4.9649-2.564C769.624,416.5883,772.7969,415.7783,772.3838,418.2075Z" transform="translate(-24.7666 -69.854)" fill="#fff"/><path d="M801.5,417.2622h-2.8984c-.4161-1.08.8291-.6739,1.2422-1.2144C800.5332,416.4521,802.19,415.7783,801.5,417.2622Z" transform="translate(-24.7666 -69.854)" fill="#fff"/><path d="M671.1035,417.6669c.2744.8121-.416,1.3511-.9668,1.6206-.6894-.1347-1.1025-.9453-1.6543-1.35C668.07,416.4521,670.9648,416.7216,671.1035,417.6669Z" transform="translate(-24.7666 -69.854)" fill="#fff"/><path d="M761.7607,420.9082c-.9677.4043-.5546,1.7539-1.6572,1.8886-.8281-.2695-1.1025-1.3486-.9668-2.2944C759.6914,419.6933,762.1738,419.2875,761.7607,420.9082Z" transform="translate(-24.7666 -69.854)" fill="#fff"/><rect x="731.0586" y="351.9985" width="1.3799" height="0.9443" fill="#fff"/><g clip-path="url(#clip-path-4)"><rect x="798.5205" y="193.5556" width="51.9492" height="115.3228" fill="url(#linear-gradient-4)"/><rect x="676.915" y="193.7148" width="122.9385" height="115.1636" fill="url(#linear-gradient-5)"/><rect x="614.8272" y="191.9785" width="78.957" height="116.8999" fill="url(#linear-gradient-6)"/></g><g clip-path="url(#clip-path-5)"><polygon points="759.606 117.735 824.606 109.956 835.406 195.535 770.405 203.316 759.606 117.735" fill-rule="evenodd" fill="url(#linear-gradient-7)"/><polygon points="658.739 126.064 761.014 113.824 772.864 207.747 670.594 219.99 658.739 126.064" fill-rule="evenodd" fill="url(#linear-gradient-8)"/><polygon points="604.559 130.336 700.068 118.903 712.196 215.009 616.686 226.44 604.559 130.336" fill-rule="evenodd" fill="url(#linear-gradient-9)"/></g><g clip-path="url(#clip-path-6)"><polygon points="741.154 56.056 796.222 48.513 806.157 117.377 751.091 124.923 741.154 56.056" fill-rule="evenodd" fill="url(#linear-gradient-10)"/><polygon points="660.403 63.148 742.023 51.967 752.193 122.417 670.569 133.598 660.403 63.148" fill-rule="evenodd" fill="url(#linear-gradient-11)"/><polygon points="619.402 59.337 707.915 47.212 720.446 134.04 631.933 146.163 619.402 59.337" fill-rule="evenodd" fill="url(#linear-gradient-12)"/></g><path d="M559.0723,385.9272l-5.9322.2012c-.477-.5342-1.4306-1.2017-.7509-1.9341C554.9126,384.06,557.2324,384.2607,559.0723,385.9272Zm14.4516-.2666c-4.1567,2.1338-8.0425-.7988-11.7934-1.666,1.16-1.8677,4.228-.5347,6.1352-.2681Zm40.021-3.6021v.7339a5.7757,5.7757,0,0,1-3.957-.4658l3.4766-.2681v-.2661A.6955.6955,0,0,1,613.5449,382.0585Zm-38.519-2.1337c0,2.5351-3.751,1.1333-5.4556,1.2016-.6123-.5342-2.249.1333-2.1816-1,.8188-1.4682,2.73-.0683,3.6831-1.2016C572.6377,378.5913,573.7305,379.5249,575.0259,379.9248Zm24.5434-1.4668c.3389,2.1342-1.4345,2.8017-3.0029,3.6-1.0215.4678-1.84-.7324-1.9077-1.4663a4.1265,4.1265,0,0,1,1.7046-3.6005A2.7872,2.7872,0,0,1,599.5693,378.458Z" transform="translate(-24.7666 -69.854)" fill="#fff" fill-rule="evenodd"/><g clip-path="url(#clip-path-7)"><g clip-path="url(#clip-path-8)"><path d="M417.38,242.0327C417.38,146.94,496.1758,69.854,593.38,69.854c97.2016,0,175.9966,77.0859,175.9966,172.1787S690.582,414.2094,593.38,414.2094C496.1758,414.2094,417.38,337.1254,417.38,242.0327Z" transform="translate(-24.7666 -69.854)" fill="#d90912" fill-rule="evenodd"/><path d="M420.1294,242.0327c0-93.6084,77.5649-169.4893,173.251-169.4893,95.6821,0,173.2466,75.8809,173.2466,169.4893,0,93.6049-77.5645,169.4853-173.2466,169.4853C497.6943,411.518,420.1294,335.6376,420.1294,242.0327Z" transform="translate(-24.7666 -69.854)" fill="#da1c11" fill-rule="evenodd"/><path d="M422.8789,242.0327c0-92.1211,76.334-166.7984,170.5015-166.7984,94.1645,0,170.4975,74.6773,170.4975,166.7984,0,92.1191-76.333,166.7964-170.4975,166.7964C499.2129,408.8291,422.8789,334.1518,422.8789,242.0327Z" transform="translate(-24.7666 -69.854)" fill="#db2811" fill-rule="evenodd"/><path d="M425.6289,242.0307c0-90.6348,75.1025-164.1069,167.7515-164.1069,92.645,0,167.7485,73.4721,167.7485,164.1069S686.0254,406.14,593.38,406.14C500.7314,406.14,425.6289,332.6655,425.6289,242.0307Z" transform="translate(-24.7666 -69.854)" fill="#dc3210" fill-rule="evenodd"/><path d="M428.3784,242.0327c0-89.1509,73.8716-161.418,165.002-161.418,91.1274,0,164.9985,72.2671,164.9985,161.418,0,89.1484-73.8711,161.416-164.9985,161.416C502.25,403.4487,428.3784,331.1811,428.3784,242.0327Z" transform="translate(-24.7666 -69.854)" fill="#de3a10" fill-rule="evenodd"/><path d="M431.1279,242.0327c0-87.6646,72.6407-158.7271,162.2525-158.7271,89.6079,0,162.2485,71.0625,162.2485,158.7271,0,87.6626-72.6406,158.7246-162.2485,158.7246C503.7686,400.7573,431.1279,329.6953,431.1279,242.0327Z" transform="translate(-24.7666 -69.854)" fill="#df430f" fill-rule="evenodd"/><path d="M433.8774,242.0327c0-86.1787,71.4131-156.0376,159.503-156.0376S752.8789,155.854,752.8789,242.0327c0,86.1767-71.4082,156.0356-159.4985,156.0356S433.8774,328.2094,433.8774,242.0327Z" transform="translate(-24.7666 -69.854)" fill="#e14c0d" fill-rule="evenodd"/><path d="M436.6274,242.0327c0-84.6929,70.1783-153.3467,156.753-153.3467,86.5708,0,156.75,68.6538,156.75,153.3467,0,84.6909-70.1787,153.3442-156.7495,153.3442C506.8057,395.3769,436.6274,326.7236,436.6274,242.0327Z" transform="translate(-24.7666 -69.854)" fill="#e2540c" fill-rule="evenodd"/><ellipse cx="568.6139" cy="172.1767" rx="154.0004" ry="150.6553" fill="#e45d09"/><path d="M442.1265,242.0307c0-81.7187,67.7163-147.9658,151.2539-147.9658,83.5307,0,151.2466,66.2471,151.2466,147.9658,0,81.7207-67.7159,147.9658-151.2466,147.9658C509.8428,389.9965,442.1265,323.7514,442.1265,242.0307Z" transform="translate(-24.7666 -69.854)" fill="#e66407" fill-rule="evenodd"/><ellipse cx="568.6137" cy="172.1772" rx="148.5006" ry="145.2754" fill="#e76c04"/><path d="M447.6294,242.0327c0-78.7491,65.2539-142.586,145.751-142.586,80.4936,0,145.7475,63.8369,145.7475,142.586,0,78.7465-65.2539,142.5835-145.7475,142.5835C512.8833,384.6162,447.6294,320.7792,447.6294,242.0327Z" transform="translate(-24.7666 -69.854)" fill="#e97401" fill-rule="evenodd"/><path d="M450.3789,242.0327c0-77.2647,64.023-139.8965,143.0015-139.8965,78.9751,0,142.9985,62.6318,142.9985,139.8965,0,77.2607-64.0234,139.8925-142.9985,139.8925C514.4019,381.9252,450.3789,319.2934,450.3789,242.0327Z" transform="translate(-24.7666 -69.854)" fill="#ea7b00" fill-rule="evenodd"/><path d="M453.1284,242.0327c0-75.7769,62.792-137.2056,140.252-137.2056,77.4565,0,140.2485,61.4287,140.2485,137.2056S670.8369,379.2358,593.38,379.2358C515.92,379.2358,453.1284,317.809,453.1284,242.0327Z" transform="translate(-24.7666 -69.854)" fill="#ec8200" fill-rule="evenodd"/><path d="M455.8779,242.0327c0-74.2925,61.5611-134.5142,137.5025-134.5142,75.938,0,137.4985,60.2217,137.4985,134.5142,0,74.289-61.5605,134.5122-137.4985,134.5122C517.439,376.5449,455.8779,316.3217,455.8779,242.0327Z" transform="translate(-24.7666 -69.854)" fill="#ee8900" fill-rule="evenodd"/><path d="M458.6279,242.0307c0-72.8047,60.33-131.8232,134.7525-131.8232,74.4194,0,134.7485,59.0185,134.7485,131.8232,0,72.8067-60.3291,131.8233-134.7485,131.8233C518.9575,373.854,458.6279,314.8374,458.6279,242.0307Z" transform="translate(-24.7666 -69.854)" fill="#ef9100" fill-rule="evenodd"/><path d="M461.3774,242.0307c0-71.3188,59.0987-129.1338,132.003-129.1338,72.9009,0,132,57.815,132,129.1338S666.2813,371.1645,593.38,371.1645C520.4761,371.1645,461.3774,313.35,461.3774,242.0307Z" transform="translate(-24.7666 -69.854)" fill="#f19800" fill-rule="evenodd"/><ellipse cx="568.6137" cy="172.177" rx="129.2496" ry="126.4432" fill="#f39e00"/><path d="M466.88,242.0327c0-68.3487,56.6333-123.7535,126.5-123.7535,69.8637,0,126.4966,55.4048,126.4966,123.7535,0,68.3466-56.6329,123.7514-126.4966,123.7514C523.5132,365.7841,466.88,310.3793,466.88,242.0327Z" transform="translate(-24.7666 -69.854)" fill="#f5a500" fill-rule="evenodd"/><path d="M469.63,242.0327c0-66.8628,55.4018-121.0645,123.75-121.0645,68.3452,0,123.7466,54.2017,123.7466,121.0645,0,66.8608-55.4014,121.0605-123.7466,121.0605C525.0317,363.0932,469.63,308.8935,469.63,242.0327Z" transform="translate(-24.7666 -69.854)" fill="#f7ac00" fill-rule="evenodd"/><path d="M472.3794,242.0327c0-65.3765,54.1709-118.3731,121.001-118.3731,66.8227,0,120.9975,52.9966,120.9975,118.3731,0,65.3745-54.1748,118.3711-120.9975,118.3711C526.55,360.4038,472.3794,307.4072,472.3794,242.0327Z" transform="translate(-24.7666 -69.854)" fill="#f8b300" fill-rule="evenodd"/><path d="M475.1289,242.0307c0-63.89,52.9434-115.6821,118.2515-115.6821s118.2475,51.792,118.2475,115.6821S658.6885,357.7143,593.38,357.7143,475.1289,305.9213,475.1289,242.0307Z" transform="translate(-24.7666 -69.854)" fill="#faba00" fill-rule="evenodd"/><path d="M477.8784,242.0307c0-62.4043,51.709-112.9907,115.502-112.9907,63.7895,0,115.4985,50.5864,115.4985,112.9907S657.17,355.0234,593.38,355.0234C529.5874,355.0234,477.8784,304.4355,477.8784,242.0307Z" transform="translate(-24.7666 -69.854)" fill="#fcc000" fill-rule="evenodd"/><path d="M480.6284,242.0327c0-60.92,50.481-110.3018,112.752-110.3018s112.7485,49.3814,112.7485,110.3018c0,60.9165-50.4775,110.3-112.7485,110.3S480.6284,302.9492,480.6284,242.0327Z" transform="translate(-24.7666 -69.854)" fill="#fec700" fill-rule="evenodd"/><path d="M483.3779,242.0327c0-59.4346,49.25-107.6123,110.0025-107.6123,60.7485,0,109.9985,48.1777,109.9985,107.6123,0,59.4326-49.25,107.61-109.9985,107.61C532.6279,349.643,483.3779,301.4653,483.3779,242.0327Z" transform="translate(-24.7666 -69.854)" fill="#fec700" fill-rule="evenodd"/><path d="M486.1172,242.0327c0-57.9551,48.0224-104.9346,107.2632-104.9346S700.64,184.0776,700.64,242.0327c0,57.9531-48.0185,104.9326-107.2592,104.9326S486.1172,299.9858,486.1172,242.0327Z" transform="translate(-24.7666 -69.854)" fill="#fec900" fill-rule="evenodd"/><path d="M488.8535,242.0327c0-56.4771,46.7944-102.2583,104.5269-102.2583,57.7251,0,104.5239,45.7812,104.5239,102.2583,0,56.4736-46.7988,102.2544-104.5239,102.2544C535.6479,344.2871,488.8535,298.5063,488.8535,242.0327Z" transform="translate(-24.7666 -69.854)" fill="#ffcb00" fill-rule="evenodd"/><path d="M491.5894,242.0327c0-54.9976,45.5737-99.58,101.791-99.58s101.7876,44.5825,101.7876,99.58c0,54.9956-45.57,99.5781-101.7876,99.5781S491.5894,297.0283,491.5894,242.0327Z" transform="translate(-24.7666 -69.854)" fill="#ffce00" fill-rule="evenodd"/><path d="M494.3257,242.0327c0-53.5181,44.3457-96.9019,99.0547-96.9019,54.7055,0,99.0512,43.3838,99.0512,96.9019,0,53.5161-44.3457,96.9-99.0512,96.9C538.6714,338.9326,494.3257,295.5488,494.3257,242.0327Z" transform="translate(-24.7666 -69.854)" fill="#ffd000" fill-rule="evenodd"/><ellipse cx="568.6136" cy="172.1768" rx="96.315" ry="94.2237" fill="#ffd200"/><path d="M499.8013,242.0327c0-50.5625,41.894-91.5479,93.5791-91.5479,51.6821,0,93.5757,40.9854,93.5757,91.5479,0,50.5586-41.8936,91.5459-93.5757,91.5459C541.6953,333.5786,499.8013,292.5913,499.8013,242.0327Z" transform="translate(-24.7666 -69.854)" fill="#ffd400" fill-rule="evenodd"/><path d="M502.5376,242.0327c0-49.083,40.6694-88.87,90.8428-88.87,50.17,0,90.8393,39.7867,90.8393,88.87,0,49.081-40.6689,88.8676-90.8393,88.8676C543.207,330.9,502.5376,291.1137,502.5376,242.0327Z" transform="translate(-24.7666 -69.854)" fill="#ffd600" fill-rule="evenodd"/><path d="M505.2734,242.0327c0-47.6035,39.4454-86.1934,88.107-86.1934,48.6577,0,88.103,38.59,88.103,86.1934,0,47.6015-39.4453,86.1894-88.103,86.1894C544.7188,328.2221,505.2734,289.6342,505.2734,242.0327Z" transform="translate(-24.7666 -69.854)" fill="#ffd900" fill-rule="evenodd"/><path d="M508.01,242.0327c0-46.1255,38.2207-83.5152,85.3706-83.5152,47.146,0,85.3676,37.39,85.3676,83.5152,0,46.1235-38.2216,83.5131-85.3676,83.5131C546.2305,325.5458,508.01,288.1562,508.01,242.0327Z" transform="translate(-24.7666 -69.854)" fill="#ffdb00" fill-rule="evenodd"/><path d="M510.749,242.0327c0-44.6475,36.9932-80.8374,82.6314-80.8374,45.6342,0,82.6313,36.19,82.6313,80.8374,0,44.644-36.9971,80.8354-82.6313,80.8354C547.7422,322.8681,510.749,286.6767,510.749,242.0327Z" transform="translate(-24.7666 -69.854)" fill="#fd0" fill-rule="evenodd"/><path d="M513.4854,242.0327c0-43.168,35.769-78.1612,79.895-78.1612,44.1225,0,79.8911,34.9932,79.8911,78.1612,0,43.166-35.7686,78.1587-79.8911,78.1587C549.2544,320.1914,513.4854,285.1987,513.4854,242.0327Z" transform="translate(-24.7666 -69.854)" fill="#ffdf00" fill-rule="evenodd"/><path d="M516.2212,242.0307c0-41.687,34.5449-75.4809,77.1592-75.4809,42.6108,0,77.1548,33.7939,77.1548,75.4809,0,41.6885-34.544,75.4829-77.1548,75.4829C550.7661,317.5136,516.2212,283.7192,516.2212,242.0307Z" transform="translate(-24.7666 -69.854)" fill="#ffe100" fill-rule="evenodd"/><path d="M518.9575,242.0307c0-40.209,33.32-72.8027,74.4229-72.8027,41.0991,0,74.4194,32.5937,74.4194,72.8027s-33.32,72.8047-74.4194,72.8047C552.2778,314.8354,518.9575,282.24,518.9575,242.0307Z" transform="translate(-24.7666 -69.854)" fill="#ffe300" fill-rule="evenodd"/><path d="M521.6934,242.0327c0-38.7315,32.0962-70.1285,71.687-70.1285s71.6831,31.397,71.6831,70.1285c0,38.73-32.0928,70.125-71.6831,70.125S521.6934,280.7622,521.6934,242.0327Z" transform="translate(-24.7666 -69.854)" fill="#ffe500" fill-rule="evenodd"/><path d="M524.4331,242.0327c0-37.252,30.8648-67.4507,68.9473-67.4507,38.0747,0,68.9477,30.1987,68.9477,67.4507s-30.873,67.4487-68.9477,67.4487C555.2979,309.4814,524.4331,279.2841,524.4331,242.0327Z" transform="translate(-24.7666 -69.854)" fill="#ffe700" fill-rule="evenodd"/><path d="M527.1689,242.0327c0-35.774,29.6441-64.7725,66.2115-64.7725s66.2075,28.9985,66.2075,64.7725c0,35.7719-29.6406,64.7705-66.2075,64.7705S527.1689,277.8046,527.1689,242.0327Z" transform="translate(-24.7666 -69.854)" fill="#ffe900" fill-rule="evenodd"/><path d="M529.9053,242.0307c0-34.2944,28.416-62.0942,63.4751-62.0942,35.0551,0,63.4712,27.8,63.4712,62.0942S628.4355,304.125,593.38,304.125C558.3213,304.125,529.9053,276.3251,529.9053,242.0307Z" transform="translate(-24.7666 -69.854)" fill="#ffeb00" fill-rule="evenodd"/><path d="M532.6445,242.0327c0-32.8169,27.1924-59.418,60.7359-59.418s60.7348,26.6011,60.7348,59.418c0,32.8149-27.1914,59.416-60.7348,59.416S532.6445,274.8476,532.6445,242.0327Z" transform="translate(-24.7666 -69.854)" fill="#ffed00" fill-rule="evenodd"/><path d="M535.3774,242.0327c0-31.3374,25.9678-56.7417,58.003-56.7417,32.0317,0,57.9966,25.4043,57.9966,56.7417s-25.9649,56.74-57.9966,56.74C561.3452,298.7724,535.3774,273.37,535.3774,242.0327Z" transform="translate(-24.7666 -69.854)" fill="#ffed00" fill-rule="evenodd"/><path d="M564.3789,242.0327c0-15.669,12.9839-28.3716,29.0015-28.3716,16.0141,0,28.9985,12.7026,28.9985,28.3716s-12.9844,28.3681-28.9985,28.3681C577.3628,270.4008,564.3789,257.7011,564.3789,242.0327Z" transform="translate(-24.7666 -69.854)" fill="#ffed00" fill-rule="evenodd"/></g></g><path d="M158.2266,586.1484l-19.0157,72.6709h12.837l3.1367-14.9258h17.7812l3.2324,14.9258h14.168L172.3,586.1484Zm12.1718,45.2158H157.8467l6.1806-29.6348Z" transform="translate(-24.7666 -69.854)" fill="#d90912" fill-rule="evenodd"/><rect x="171.4277" y="516.2944" width="13.0274" height="72.6709" fill="#d90912"/><rect x="195.751" y="516.2944" width="13.0273" height="72.6709" fill="#d90912"/><path d="M280.877,634.415c0-11.2217-.5694-14.708-3.4219-20.5918a16.5385,16.5385,0,0,0-15.2139-9.8066c-12.17,0-19.4912,10.6777-19.4912,28.7636,0,17.2149,7.1309,27.1289,19.5869,27.1289,10.2695,0,16.26-5.8838,18.54-18.74l-11.5987-.8711c-.7607,6.6465-2.6631,9.26-6.6553,9.26-4.4707,0-6.371-3.5938-6.371-12.42,0-.5429,0-1.5244.0947-2.7226Zm-12.2647-8.6074H256.3467c.1894-8.39,1.9961-11.876,6.0849-11.876,3.9942,0,6.1807,3.7041,6.1807,10.3506Z" transform="translate(-24.7666 -69.854)" fill="#d90912" fill-rule="evenodd"/><path d="M321.1328,618.0732c-2.1875-9.2617-7.7031-14.0566-15.88-14.0566-9.7929,0-16.64,6.9746-16.64,17.1074,0,8.2783,4.0888,13.1816,14.0732,16.8867,3.4229,1.1992,4.3731,1.7422,5.5147,2.6133a4.9982,4.9982,0,0,1,1.9961,4.4668c0,3.16-1.9014,4.9043-5.1338,4.9043-4.0889,0-6.4658-2.5069-7.5117-7.9551l-10.3643,1.9619c1.4258,10.7861,7.1309,15.9072,17.59,15.9072,10.6495,0,17.7813-7.081,17.7813-17.541,0-4.5752-1.5215-8.6064-4.374-11.2217-2.376-2.18-3.4229-2.7246-9.5088-5.23-3.3272-1.3067-4.6582-1.9619-5.7988-2.833a5.3665,5.3665,0,0,1-1.9981-4.4668c0-2.833,1.6162-4.6846,4.0879-4.6846,3.3291,0,5.3252,2.0693,6.8467,7.3Z" transform="translate(-24.7666 -69.854)" fill="#d90912" fill-rule="evenodd"/><polygon points="325.806 535.253 337.595 588.965 348.244 588.965 354.139 552.466 360.13 588.965 371.064 588.965 382.854 535.253 372.585 535.253 366.216 567.939 362.032 535.253 349.29 535.253 344.061 567.939 338.547 535.253 325.806 535.253" fill="#d90912" fill-rule="evenodd"/><path d="M429.9189,604.0166c-12.7412,0-19.11,9.2617-19.0166,28.0009,0,18.6319,6.2754,27.8916,19.0166,27.8916s19.0166-9.26,19.0166-28C448.9355,613.2783,442.66,604.0166,429.9189,604.0166Zm.0957,10.46c4.0889,0,5.419,4.4678,5.419,17.541s-1.33,17.4326-5.5147,17.4326c-4.1826,0-5.6084-4.3593-5.6084-17.4326C424.3105,618.8339,425.7363,614.4765,430.0146,614.4765Z" transform="translate(-24.7666 -69.854)" fill="#d90912" fill-rule="evenodd"/><polygon points="427.246 535.253 440.558 588.965 450.827 588.965 463.758 535.253 452.823 535.253 446.358 566.957 439.892 535.253 427.246 535.253" fill="#d90912" fill-rule="evenodd"/><path d="M510.4863,604.0166c-12.7412,0-19.1113,9.2617-19.0166,28.0009,0,18.6319,6.2754,27.8916,19.0166,27.8916s19.0157-9.26,19.0157-28C529.502,613.2783,523.2275,604.0166,510.4863,604.0166Zm.0957,10.46c4.0879,0,5.419,4.4678,5.419,17.541S514.67,649.45,510.4863,649.45s-5.6093-4.3593-5.6093-17.4326C504.877,618.8339,506.3037,614.4765,510.582,614.4765Z" transform="translate(-24.7666 -69.854)" fill="#d90912" fill-rule="evenodd"/><path d="M538.8545,605.1074v53.7119h13.0273V627.333c0-5.9922.1905-7.626,1.2364-9.37a4.661,4.661,0,0,1,4.373-2.288c3.6143,0,4.66,1.6347,4.66,7.9541v35.19h13.0254v-35.19c0-6.5372-.0948-8.4991-.7608-11.1143a11.9728,11.9728,0,0,0-3.042-5.3379,10.8669,10.8669,0,0,0-8.2724-3.16c-6.1807,0-9.2227,2.18-11.8858,8.3906v-7.3Z" transform="translate(-24.7666 -69.854)" fill="#d90912" fill-rule="evenodd"/><path d="M651.2266,601.9462c-1.8067-6.4267-3.1368-8.9336-6.2754-11.7666a20.33,20.33,0,0,0-14.168-5.12c-12.17,0-20.2519,8.9336-20.2519,22.2256,0,6.32,1.996,11.5488,5.8945,15.2549,3.3281,3.1582,4.8506,4.0293,13.2178,7.4082,6.6552,2.7226,8.747,5.0117,8.747,9.1514,0,4.6845-3.2324,7.8447-8.082,7.8447-5.3242,0-8.3682-3.2695-10.1738-10.8955l-12.17,3.9219c3.2325,13.5107,10.3633,19.9384,21.9629,19.9384,13.503,0,22.5342-9.26,22.5342-23.0976,0-6.6465-2.1865-11.9844-6.2744-15.7979-2.8525-2.6152-5.0391-3.9219-11.22-6.5371-5.04-2.1787-6.4658-2.9424-8.083-4.249a6.7123,6.7123,0,0,1,3.8047-12.2031c4.4687,0,7.1308,2.8339,8.9375,9.0429Z" transform="translate(-24.7666 -69.854)" fill="#d90912" fill-rule="evenodd"/><path d="M661.5244,605.1074v53.7119h13.0274V605.1074Zm13.1211-4.4678V585.8222H661.334V600.64Z" transform="translate(-24.7666 -69.854)" fill="#d90912" fill-rule="evenodd"/><path d="M721.8838,634.415c0-11.2217-.57-14.708-3.4229-20.5918a16.5359,16.5359,0,0,0-15.2129-9.8066c-12.17,0-19.4912,10.6777-19.4912,28.7636,0,17.2149,7.1309,27.1289,19.587,27.1289,10.2695,0,16.26-5.8838,18.54-18.74l-11.6-.8711c-.76,6.6465-2.6621,9.26-6.6553,9.26-4.47,0-6.37-3.5938-6.37-12.42,0-.5429,0-1.5244.0947-2.7226Zm-12.2656-8.6074H697.3535c.1895-8.39,1.9961-11.876,6.084-11.876,3.9941,0,6.1807,3.7041,6.1807,10.3506Z" transform="translate(-24.7666 -69.854)" fill="#d90912" fill-rule="evenodd"/><path d="M760.2734,589.3085l-1.0459,15.7989H753.332V616.874h5.23v21.3545c0,9.37.0957,10.5683,1.3321,13.9443a10.3965,10.3965,0,0,0,2.5664,4.1416c2.3759,2.3955,5.8007,3.5947,10.1728,3.5947a29.33,29.33,0,0,0,7.9873-1.09V647.38c-1.9.1084-2.4717.2188-3.707.2188-2.6631,0-4.1846-.7637-4.9443-2.2881a11.4939,11.4939,0,0,1-.6661-3.3779V616.874h8.6524V605.1074h-8.6524V588.11Z" transform="translate(-24.7666 -69.854)" fill="#d90912" fill-rule="evenodd"/><path d="M787.4678,605.1074v53.7119h13.0273V635.6132c0-11.2216,3.043-16.5615,9.6035-16.5615.57,0,1.0459.1094,2.1866.2178V604.6718a10.0532,10.0532,0,0,0-2.2823-.3281,8.9485,8.9485,0,0,0-7.0351,3.8135c-1.8067,2.5058-2.6621,4.5761-3.9942,9.916V605.1074Z" transform="translate(-24.7666 -69.854)" fill="#d90912" fill-rule="evenodd"/><path d="M830.7344,622.1025c.4746-5.7734,1.9961-8.1709,5.3242-8.1709,3.8027,0,4.8486,1.9619,4.8486,9.48V625.48c-16.9258,1.0889-24.1513,6.9727-24.1513,19.72,0,9.1524,4.7548,14.709,12.36,14.709a12.6425,12.6425,0,0,0,9.3193-3.8125,21.1845,21.1845,0,0,0,3.5176-5.4472v1.6338a21.4384,21.4384,0,0,0,.666,6.5361h12.0762a17.7939,17.7939,0,0,1-.666-4.794c0-1.96-.0957-5.2285-.0957-7.19V625.48c0-11.4394-1.0469-15.0351-5.5156-18.1953-3.042-2.2881-6.6543-3.2685-11.1231-3.2685-10.8408,0-17.5918,5.8828-18.9219,16.7792Zm-1.8086-24.5137a5.7349,5.7349,0,1,0-5.3242-5.665A5.48,5.48,0,0,0,828.9258,597.5888Zm15.6894,0a5.739,5.739,0,0,0-.0957-11.44c-2.8515,0-5.2285,2.6152-5.2285,5.7754A5.479,5.479,0,0,0,844.6152,597.5888Zm-3.708,35.5195v2.6133c0,6.9737-.7607,10.2422-3.042,12.8575a4.3848,4.3848,0,0,1-3.1386,1.5244c-2.8526,0-4.3741-2.5049-4.3741-6.8643C830.3525,636.7021,832.8242,634.3056,840.9072,633.1083Z" transform="translate(-24.7666 -69.854)" fill="#d90912" fill-rule="evenodd"/><path d="M864.626,605.1074v34.8633c0,8.6084.0947,10.0244,1.2353,13.2929a10.9521,10.9521,0,0,0,2.8535,4.14c1.9961,1.7441,4.5625,2.5058,7.8907,2.5058,3.6133,0,6.4668-.9795,8.3672-2.833a22.1271,22.1271,0,0,0,3.7089-5.5556v7.2988h12.2647V605.1074H887.9209v27.4551c0,6.9726,0,8.499-.2861,10.4589a7.3108,7.3108,0,0,1-1.2364,3.378,4.8847,4.8847,0,0,1-4.1826,1.9619,3.9669,3.9669,0,0,1-4.374-3.9238,45.9714,45.9714,0,0,1-.19-4.9024V605.1074Z" transform="translate(-24.7666 -69.854)" fill="#d90912" fill-rule="evenodd"/><path d="M912.3037,605.1074v53.7119h13.0274V627.5507c0-5.7744.2841-8.0615,1.2363-9.8056a3.8523,3.8523,0,0,1,3.708-2.07c3.2324,0,4.1826,1.3076,4.2783,6.21l.0947,2.9424v33.9922h13.0274V627.5507c0-5.4482.1894-7.6259.8555-9.37a3.8835,3.8835,0,0,1,3.8984-2.5058c2.5664,0,3.8027,1.3076,4.0889,4.25.0947,1.3066.0947,3.3769.0947,5.3378v33.5567h13.1211v-35.082c0-6.4278-.19-8.8252-.8555-11.5479a10.1088,10.1088,0,0,0-2.9473-5.34,11.632,11.632,0,0,0-8.1767-2.833c-5.8008,0-9.1289,2.3974-11.6016,8.3906-1.52-6.1016-4.374-8.3906-10.1728-8.3906-5.5147,0-8.6534,2.289-11.3155,8.3906v-7.3Z" transform="translate(-24.7666 -69.854)" fill="#d90912" fill-rule="evenodd"/><path d="M1016.4043,634.415c0-11.2217-.57-14.708-3.4229-20.5918a16.5384,16.5384,0,0,0-15.2138-9.8066c-12.17,0-19.49,10.6777-19.49,28.7636,0,17.2149,7.1309,27.1289,19.586,27.1289,10.2695,0,16.26-5.8838,18.541-18.74l-11.6-.8711c-.7608,6.6465-2.6621,9.26-6.6553,9.26-4.47,0-6.3711-3.5938-6.3711-12.42,0-.5429,0-1.5244.0947-2.7226Zm-12.2656-8.6074H991.873c.1895-8.39,1.9961-11.876,6.085-11.876,3.9941,0,6.1807,3.7041,6.1807,10.3506Z" transform="translate(-24.7666 -69.854)" fill="#d90912" fill-rule="evenodd"/><path d="M1025.7559,605.1074v53.7119h13.0273V627.333c0-5.9922.19-7.626,1.2363-9.37a4.6613,4.6613,0,0,1,4.3731-2.288c3.6133,0,4.66,1.6347,4.66,7.9541v35.19h13.0254v-35.19c0-6.5372-.0937-8.4991-.76-11.1143a11.9942,11.9942,0,0,0-3.043-5.3379,10.8655,10.8655,0,0,0-8.2725-3.16c-6.1806,0-9.2236,2.18-11.8857,8.3906v-7.3Z" transform="translate(-24.7666 -69.854)" fill="#d90912" fill-rule="evenodd"/><path d="M24.7666,553.0058H47.4629c34.0469,0,36.9267-22.1738,36.9267-52.63,0-31.9316-3.5566-52.6289-40.4833-52.6289h-19.14Zm22.0186-88.9971c13.89.1485,14.5673,4.4356,14.5673,36.2207,0,31.9307-.6777,36.3682-14.5673,36.5147Z" transform="translate(-24.7666 -69.854)" fill="#fff" fill-rule="evenodd"/><path d="M145.1572,515.8984c0-28.0869-11.8584-38.2871-27.1025-38.2871s-27.1026,10.2-27.1026,38.2871c0,28.0889,11.8584,38.29,27.1026,38.29S145.1572,543.9873,145.1572,515.8984Zm-21.0058,0c0,22.6182-1.5215,25.8721-6.0967,25.8721-4.5723,0-6.0977-3.2539-6.0977-25.8721s1.5254-25.8692,6.0977-25.8692C122.63,490.0292,124.1514,493.28,124.1514,515.8984Z" transform="translate(-24.7666 -69.854)" fill="#fff" fill-rule="evenodd"/><path d="M150.5361,553.0058h19.6514V494.76a8.46,8.46,0,0,1,6.4355-2.958c2.879,0,5.5909,1.4785,5.5909,6.0615v55.1426h19.6484V494.76a8.7512,8.7512,0,0,1,6.4356-2.958c3.3886,0,5.5908,1.9219,5.5908,6.6524v54.5517h19.6484V492.247c0-8.7236-3.7266-14.6357-14.7383-14.6357a23.1762,23.1762,0,0,0-18.123,8.87c-1.5254-5.7656-5.42-8.87-12.5352-8.87-6.7754,0-14.2285,4.2861-17.6152,8.5742h-.3379v-7.3926H150.5361Z" transform="translate(-24.7666 -69.854)" fill="#fff" fill-rule="evenodd"/><path d="M238.9,553.0058h19.65V478.7929H238.9Zm0-88.1084h19.65v-17.15H238.9Z" transform="translate(-24.7666 -69.854)" fill="#fff" fill-rule="evenodd"/><path d="M263.9141,553.0058h19.6513V494.61a9.4021,9.4021,0,0,1,6.6035-2.8086c3.3887,0,5.5909,1.7754,5.5909,7.3926v53.8115h19.6484V492.9843c0-9.7568-4.4043-15.373-13.7187-15.373-7.2842,0-13.2129,4.14-17.7852,8.2783h-.3389v-7.0967H263.9141Z" transform="translate(-24.7666 -69.854)" fill="#fff" fill-rule="evenodd"/><path d="M320.74,553.0058h19.6514V478.7929H320.74Zm0-88.1084h19.6514v-17.15H320.74Z" transform="translate(-24.7666 -69.854)" fill="#fff" fill-rule="evenodd"/><polygon points="321.836 483.152 341.484 483.152 341.484 457.871 346.06 449.742 346.227 449.742 355.884 483.152 375.532 483.152 359.61 431.409 373.159 408.939 356.899 408.939 341.823 434.811 341.484 434.811 341.484 377.893 321.836 377.893 321.836 483.152" fill="#fff" fill-rule="evenodd"/><path d="M421.2217,500.0019c.68-3.7646,1.6953-9.0859,7.2842-9.0859,3.3877,0,5.2519,1.1816,5.2519,6.8007v8.4258c-19.48,1.0352-32.3525,11.6778-32.3525,29.1241,0,7.8339,3.5566,18.9218,17.4463,18.9218,4.2334,0,11.8554-2.0683,15.9218-7.9834l1.3565,6.8008h19.31a77.8894,77.8894,0,0,1-2.0332-13.8955v-39.916c0-10.0537-2.88-21.583-24.0528-21.583-14.7353.0049-24.3916,8.0107-24.3916,21.0576Zm12.5361,37.9287a6.4321,6.4321,0,0,1-5.7588,2.9531c-5.2519,0-6.9453-5.0263-6.9453-8.4277,0-8.4258,2.0313-14.043,12.7041-15.6689Z" transform="translate(-24.7666 -69.854)" fill="#fff" fill-rule="evenodd"/><path d="M458.7461,553.0058h19.65V494.61a9.4046,9.4046,0,0,1,6.6045-2.8086c3.3877,0,5.5908,1.7754,5.5908,7.3926v53.8115H510.24V492.9843c0-9.7568-4.4043-15.373-13.72-15.373-7.2832,0-13.2129,4.14-17.7851,8.2783h-.3389v-7.0967h-19.65Z" transform="translate(-24.7666 -69.854)" fill="#fff" fill-rule="evenodd"/><path d="M515.5723,553.0058h19.65V478.7929h-19.65Zm0-88.1084h19.65v-17.15h-19.65Z" transform="translate(-24.7666 -69.854)" fill="#fff" fill-rule="evenodd"/><path d="M584.7969,497.4189c-1.1836-11.0869-7.961-19.8076-21.68-19.8076-13.7227,0-23.376,8.7207-23.376,20.5478,0,25.1309,30.4883,25.8711,30.4883,37.55,0,3.4014-2.54,6.0616-6.6065,6.0616-6.4355,0-8.47-3.2539-9.8242-11.2344l-15.415,2.0683c1.6963,13.1582,8.3017,21.584,24.3945,21.584,15.2442,0,25.0684-9.0166,25.0684-21.8789,0-22.6191-31.8457-23.8008-31.8457-35.9238,0-3.252,2.2021-6.3565,5.93-6.3565,6.7744,0,7.96,4.877,8.6377,9.461Z" transform="translate(-24.7666 -69.854)" fill="#fff" fill-rule="evenodd"/><path d="M641.835,505.4023c-1.3545-14.7822-4.5723-27.791-23.544-27.791-15.414,0-27.2734,10.2-27.2734,38.2871,0,28.0889,11.8594,38.29,27.2734,38.29,19.9873-.2959,23.2051-15.373,23.544-29.123l-15.0762-.4434c-1.1836,7.6875-1.5225,16.2617-7.4522,16.2617-4.5742,0-6.2675-4.4355-6.2675-23.0634,0-23.3565,1.0156-27.7911,5.42-27.7911,4.2363,0,5.42,4.2862,5.7588,15.8174Z" transform="translate(-24.7666 -69.854)" fill="#fff" fill-rule="evenodd"/><path d="M644.5361,553.0058h19.6514V494.61a9.3982,9.3982,0,0,1,6.6035-2.8086c3.3887,0,5.5908,1.7754,5.5908,7.3926v53.8115H696.03V492.9843c0-9.7568-4.4043-15.373-13.72-15.373-7.2832,0-13.2128,4.14-17.7851,8.2783h-.3379V447.8955H644.5361Z" transform="translate(-24.7666 -69.854)" fill="#fff" fill-rule="evenodd"/><path d="M753.7041,521.2216v-7.541c0-14.7812-5.252-35.9228-25.0684-36.0693-15.415,0-27.2734,10.2-27.2734,38.2871,0,28.0889,11.8584,38.29,27.2734,38.29,13.3809,0,22.5284-6.9482,25.4073-20.8437l-13.72-3.5489c-1.8632,5.0264-3.2207,10.2012-10.333,10.2012-4.0664,0-7.622-2.6621-7.622-15.5215v-3.2539Zm-31.3359-13.3047v-2.07c0-11.3828,1.6923-14.9306,6.0966-14.9306,4.7432,0,6.6065,4.14,6.6065,14.9306v2.07Z" transform="translate(-24.7666 -69.854)" fill="#fff" fill-rule="evenodd"/><path d="M812.5127,463.122h3.3887c7.4511,0,12.1963,3.253,12.1963,14.6358,0,7.541-3.0489,14.6357-11.1807,14.6357h-4.4043Zm-22.0186,89.8838h22.0186V507.7685h5.2519l10.3331,45.2373h22.1894l-13.0439-49.6719c9.8261-5.0263,12.874-16.8525,12.874-25.7226,0-22.1768-13.8906-29.8643-34.8926-29.8643H790.4941Z" transform="translate(-24.7666 -69.854)" fill="#fff" fill-rule="evenodd"/><path d="M905.8242,521.2216v-7.541c0-14.7812-5.2519-35.9228-25.0683-36.0693-15.4151,0-27.2735,10.2-27.2735,38.2871,0,28.0889,11.8584,38.29,27.2735,38.29,13.3808,0,22.5273-6.9482,25.4062-20.8437l-13.7187-3.5489c-1.8633,5.0264-3.2207,10.2012-10.334,10.2012-4.0655,0-7.6211-2.6621-7.6211-15.5215v-3.2539Zm-31.3359-13.3047v-2.07c0-11.3828,1.6924-14.9306,6.0967-14.9306,4.7431,0,6.6064,4.14,6.6064,14.9306v2.07Z" transform="translate(-24.7666 -69.854)" fill="#fff" fill-rule="evenodd"/><path d="M929.6289,478.7929H910.8252v96.3877h19.6484V548.8662h.3389a15.9776,15.9776,0,0,0,12.3652,5.3222c14.3985,0,21.0049-13.6006,21.0049-38.1406,0-24.2461-5.081-38.4365-19.31-38.4365-7.7929,0-11.0107,3.251-14.9062,7.0947h-.3379Zm13.5488,37.4033c0,23.3565-1.5224,26.46-7.2841,26.46-2.54,0-4.5723-1.0322-5.42-2.3643V492.3935a9.9008,9.9008,0,0,1,5.93-2.3643C942.1621,490.0292,943.1777,493.4287,943.1777,516.1962Z" transform="translate(-24.7666 -69.854)" fill="#fff" fill-rule="evenodd"/><path d="M1021.0557,478.7929h-19.6485v58.3955a9.4,9.4,0,0,1-6.6064,2.8086c-3.3858,0-5.5879-1.7754-5.5879-7.3926V478.7929H969.5615v60.0225c0,9.3115,5.5908,15.373,14.5674,15.373,6.6065,0,12.3672-4.14,16.9395-8.2793h.3388v7.0967h19.6485Z" transform="translate(-24.7666 -69.854)" fill="#fff" fill-rule="evenodd"/><path d="M1027.2354,553.0058h8.1318l4.2334-7.2432c3.3887,5.3213,8.6406,8.4258,15.7529,8.4258,9.9951,0,25.24-3.4,25.24-38.5859,0-31.043-9.3184-37.9912-20.1583-37.9912-6.0976,0-9.6542,2.0683-13.5507,5.3213V447.747h-19.6494Zm19.6494-61.3506c.8476-1.4795,2.7109-2.5146,5.2519-2.5146,6.7735,0,7.4512,7.0967,7.4512,26.9072,0,15.9658-.168,27.498-6.9453,27.498-2.8789,0-5.7578-2.6621-5.7578-8.4277Z" transform="translate(-24.7666 -69.854)" fill="#fff" fill-rule="evenodd"/><rect x="1061.2051" y="377.893" width="19.6513" height="105.2588" fill="#fff"/><path d="M1110.9863,553.0058h19.6514V478.7929h-19.6514Zm0-88.1084h19.6514v-17.15h-19.6514Z" transform="translate(-24.7666 -69.854)" fill="#fff" fill-rule="evenodd"/><polygon points="1112.081 483.152 1131.731 483.152 1131.731 457.871 1136.305 449.742 1136.474 449.742 1146.13 483.152 1165.778 483.152 1149.856 431.409 1163.405 408.939 1147.145 408.939 1132.069 434.811 1131.731 434.811 1131.731 377.893 1112.081 377.893 1112.081 483.152" fill="#fff" fill-rule="evenodd"/><path d="M428.3525,726.123V733.32H416.9438v43.874h-8.5V733.32H397.189V726.123Z" transform="translate(-24.7666 -69.854)" fill="#fff"/><path d="M458.2988,758.665c0,12.71-5.2065,19.4482-14.9306,19.4482-9.6475,0-14.7779-6.8144-14.7779-19.7549,0-13.0166,5.13-19.831,14.7779-19.831C453.3223,738.5273,458.2988,745.3417,458.2988,758.665Zm-21.4389-.3067c0,9.5713,2.0673,13.8594,6.5849,13.8594s6.585-4.3652,6.585-13.8594c0-9.5712-2.0674-13.9355-6.585-13.9355S436.86,748.7871,436.86,758.3583Z" transform="translate(-24.7666 -69.854)" fill="#fff"/><path d="M474.7573,739.4462v23.9659c0,4.44.0767,5.4365.7656,6.6611.6128,1.2256,1.9146,1.7617,3.6753,1.7617a5.0118,5.0118,0,0,0,3.8287-1.5322,8.3539,8.3539,0,0,0,1.7612-3.5986c.6123-2.3731.6123-3.4454.6123-9.1114V739.4462h7.81v37.7481h-7.121v-5.666c-1.3013,2.45-1.8374,3.292-3.1392,4.4414a9.2062,9.2062,0,0,1-6.4316,2.1435,9.4974,9.4974,0,0,1-6.7383-2.374,9.0984,9.0984,0,0,1-2.1436-3.7519c-.5361-2.1436-.6894-3.9043-.6894-8.4219V739.4462Z" transform="translate(-24.7666 -69.854)" fill="#fff"/><path d="M510.8184,739.4462v8.4219c1.2251-3.5986,1.9907-5.0527,3.7519-6.7373a8.0206,8.0206,0,0,1,5.5894-2.5273,11.8651,11.8651,0,0,1,1.4546.1533v8.1162c-.7657-.0762-1.0718-.1533-1.5313-.1533-5.4365,0-8.3457,3.9053-8.3457,11.2558v19.2188h-7.81V739.4462Z" transform="translate(-24.7666 -69.854)" fill="#fff"/><path d="M526.13,734.3925v-8.3457h8.1929v8.3457Zm8.04,5.0537v37.7481h-7.81V739.4462Z" transform="translate(-24.7666 -69.854)" fill="#fff"/><path d="M561.5024,749.9355c-1.3017-3.9814-3.2158-5.666-6.3549-5.666a4.5917,4.5917,0,0,0-4.9,4.5947,4.1516,4.1516,0,0,0,1.914,3.6748c1.0718.7656,1.4546.919,5.666,2.2969,4.0582,1.3017,5.6661,2.0674,7.504,3.5224a9.814,9.814,0,0,1,3.6752,7.8106c0,7.0439-5.666,11.9443-13.8588,11.9443-4.1348,0-7.7334-1.2256-10.1075-3.5224-2.0673-1.8379-2.7563-3.4453-3.5219-7.4268l6.6616-1.3017c.8423,4.44,3.2158,6.5078,7.2739,6.5078,3.5986,0,5.8955-1.99,5.8955-4.9766a4.367,4.367,0,0,0-1.8374-3.6758c-.9956-.7656-2.144-1.2246-4.8237-2.0664-4.9-1.5322-6.6616-2.374-8.5757-4.0586a9.778,9.778,0,0,1-3.2925-7.4267c0-6.6621,5.36-11.6387,12.6338-11.6387,6.355,0,10.3369,3.2158,12.1743,9.7236Z" transform="translate(-24.7666 -69.854)" fill="#fff"/><path d="M584.8535,728.956v10.49h7.1973v6.2784h-7.1973v16.6923c0,5.2061.0767,5.8184.689,7.12s2.144,1.9912,4.5942,1.9912a27.3455,27.3455,0,0,0,3.14-.2295v6.2021a27.594,27.594,0,0,1-5.6665.6123c-3.4453,0-6.0489-.8427-7.6568-2.374a7.801,7.801,0,0,1-1.914-3.292c-.7657-2.2207-.8423-3.5986-.8423-9.5713V745.7246h-4.9v-6.2784h5.13l.3828-9.8779Z" transform="translate(-24.7666 -69.854)" fill="#fff"/><path d="M635.3086,726.123c6.3555,0,8.1934.3828,10.873,1.9912,3.1387,1.8369,5.2071,6.2012,5.2071,11.0254,0,5.7432-2.2979,9.1113-7.6573,11.1787,2.9854.919,4.0577,1.5322,5.6661,3.14a13.5835,13.5835,0,0,1,3.5224,9.6474c0,4.9776-2.0683,9.1885-5.82,11.6387-2.832,1.8379-5.666,2.45-11.5605,2.45H619.8418V726.123Zm-1.8379,21.21c6.5088,0,9.1885-2.1446,9.1885-7.4278,0-5.0537-2.5264-7.1972-8.3457-7.1972h-6.2022v14.625Zm1.4551,23.123c6.125,0,9.3418-2.833,9.3418-8.1924a8.05,8.05,0,0,0-3.0625-6.8144c-1.6084-1.1485-3.3692-1.6084-6.9688-1.6084h-6.125V770.456Z" transform="translate(-24.7666 -69.854)" fill="#fff"/><path d="M690.6641,758.665c0,12.71-5.2071,19.4482-14.9307,19.4482-9.6475,0-14.7783-6.8144-14.7783-19.7549,0-13.0166,5.1308-19.831,14.7783-19.831C685.6875,738.5273,690.6641,745.3417,690.6641,758.665Zm-21.4395-.3067c0,9.5713,2.0684,13.8594,6.5859,13.8594s6.584-4.3652,6.584-13.8594c0-9.5712-2.0664-13.9355-6.584-13.9355S669.2246,748.7871,669.2246,758.3583Z" transform="translate(-24.7666 -69.854)" fill="#fff"/><path d="M699.0059,749.17c1.2255-6.8145,6.3554-10.6426,14.2421-10.6426a14.4419,14.4419,0,0,1,8.3458,2.2207,7.98,7.98,0,0,1,3.2929,3.6748c.918,2.0674,1.1485,4.1348,1.1485,9.4941v12.8643c0,6.7373.0761,8.1162.6123,10.4131H719.373a22.2628,22.2628,0,0,1-.5351-6.2783,13.9374,13.9374,0,0,1-2.91,4.2109,10.5,10.5,0,0,1-7.7324,2.9863c-6.4326,0-10.5674-4.2109-10.5674-10.873a13.1925,13.1925,0,0,1,2.6035-8.1162c2.7569-3.5225,8.1163-5.2832,16.31-5.2832a15.6551,15.6551,0,0,1,1.6836.0761v-1.5312c0-5.8184-1.6074-8.1162-5.5889-8.1162-3.3691,0-5.36,1.8379-6.1259,5.8193Zm16.9218,9.4951c-6.7382,0-10.1836,2.68-10.1836,8.0391,0,3.5986,1.8379,5.666,5.0538,5.666,4.3642,0,7.4267-4.8233,7.4267-11.7149v-1.8379A14.7005,14.7005,0,0,0,715.9277,758.665Z" transform="translate(-24.7666 -69.854)" fill="#fff"/><path d="M743.1836,739.4462v8.4219c1.2246-3.5986,1.99-5.0527,3.7519-6.7373a8.02,8.02,0,0,1,5.59-2.5273,11.868,11.868,0,0,1,1.4541.1533v8.1162c-.7656-.0762-1.0713-.1533-1.5313-.1533-5.4365,0-8.3457,3.9053-8.3457,11.2558v19.2188H736.293V739.4462Z" transform="translate(-24.7666 -69.854)" fill="#fff"/><path d="M787.3145,726.123v51.0713h-7.1983v-5.7422c-1.1484,2.45-1.7607,3.3682-3.2158,4.44a9.3641,9.3641,0,0,1-6.2783,1.9912c-7.9639,0-12.6338-7.1982-12.6338-19.5254,0-12.0214,4.9765-19.6015,12.9394-19.6015a11.148,11.148,0,0,1,5.36,1.3779,7.88,7.88,0,0,1,3.292,3.6758V726.123ZM779.58,752.6162a12.5358,12.5358,0,0,0-.8418-3.4463c-1.2246-2.9092-3.4453-4.67-5.9727-4.67-4.4414,0-6.5078,4.1337-6.5078,13.3222,0,9.8008,1.99,14.1651,6.584,14.1651a5.4294,5.4294,0,0,0,4.1348-1.837c1.914-1.8378,2.6035-4.2119,2.6035-8.6523v-8.8818Z" transform="translate(-24.7666 -69.854)" fill="#fff"/></g></svg>